<svg xmlns="http://www.w3.org/2000/svg">
<defs>
<font id="TheMacabre" horiz-adv-x="299" >
  <font-face 
    font-family="The Macabre"
    font-weight="400"
    font-stretch="normal"
    units-per-em="2048"
    panose-1="2 0 5 0 0 0 0 0 0 0"
    ascent="1638"
    descent="-410"
    x-height="1437"
    cap-height="1464"
    bbox="-323 -405 1396 1682"
    underline-thickness="150"
    underline-position="-292"
    unicode-range="U+001D-007E"
  />
<missing-glyph horiz-adv-x="1495" 
d="M676 1396h32q335 0 564 -300q124 -187 124 -380v-40q0 -314 -288 -548q-194 -128 -388 -128h-32q-335 0 -564 300q-124 187 -124 380v40q0 314 288 548q194 128 388 128zM96 880h4q688 -4 1084 -4h116q-94 264 -292 364q-138 84 -296 84h-32q-268 0 -468 -228
q-88 -113 -116 -216zM664 1252l28 -28l32 28q5 0 32 -32q-6 0 -28 -28v-4q0 -6 28 -28q0 6 28 28h4q6 0 28 -28v-4q0 -6 -28 -28h-4l-32 28l-24 -28q28 -30 28 -36l-32 -28l-32 28l-32 -28l-28 32l28 32q-25 28 -28 28l-32 -28q-5 0 -32 32l32 28l32 -28l28 32q-6 0 -28 28
q0 5 32 32zM692 1220l-28 -32l32 -28q0 2 24 28v4q0 6 -28 28zM692 1156l-28 -32q26 -24 28 -24q6 0 28 28q0 6 -28 28zM320 1008h12l28 -8v-8l-8 -12q-22 4 -32 4q-16 -4 -16 -24q0 -17 20 -24q26 8 28 8l12 -16q-13 -10 -36 -16q-52 9 -52 48q8 48 44 48zM372 1008h20
q8 -1 8 -8v-28h28v36h28v-92h-28v32h-28v-32h-28v92zM476 1008h64v-24h-44v-12h44v-16q0 -8 -8 -8l-8 4l-8 -4l-20 4v-12h40q8 -1 8 -8v-16h-76v84q1 8 8 8zM600 1008q52 -7 52 -44l-8 -32q8 -1 8 -8q0 -6 -16 -16q-10 8 -12 8q-22 -4 -32 -4q-33 0 -44 48q0 48 52 48z
M668 1008h12q8 -1 8 -8v-40q3 -24 12 -24h8q6 0 12 12v52l4 8l8 -4h4l8 4l4 -8v-48q-5 -40 -40 -40h-8q-36 0 -40 48v40q1 8 8 8zM764 1008h8l24 -4q8 4 12 4q8 -4 12 -4q8 4 12 4v-20q0 -8 -8 -8q-7 4 -16 4v-4l-8 4h-12v-12h44v-16q0 -8 -8 -8h-36v-12h12q4 0 4 4l8 -4h8
q4 0 4 4q8 -4 12 -4v-20h-20l-24 -4q-7 4 -20 4v-4q-8 4 -12 4v72zM852 1008l28 -4v4q48 -7 48 -32q-3 -28 -20 -28l24 -32l-8 -4h-16q-3 0 -32 32h-4v-16l4 -8l-8 -4h-24v4q0 8 4 8l-4 28l4 40h-4q4 12 8 12zM940 1004h72v-16q0 -8 -8 -8h-36v-8h40v-24h-40v-12h44v-16

<glyph glyph-name=".notdef" horiz-adv-x="1495" 
d="M676 1396h32q335 0 564 -300q124 -187 124 -380v-40q0 -314 -288 -548q-194 -128 -388 -128h-32q-335 0 -564 300q-124 187 -124 380v40q0 314 288 548q194 128 388 128zM96 880h4q688 -4 1084 -4h116q-94 264 -292 364q-138 84 -296 84h-32q-268 0 -468 -228
q-88 -113 -116 -216zM664 1252l28 -28l32 28q5 0 32 -32q-6 0 -28 -28v-4q0 -6 28 -28q0 6 28 28h4q6 0 28 -28v-4q0 -6 -28 -28h-4l-32 28l-24 -28q28 -30 28 -36l-32 -28l-32 28l-32 -28l-28 32l28 32q-25 28 -28 28l-32 -28q-5 0 -32 32l32 28l32 -28l28 32q-6 0 -28 28
q0 5 32 32zM692 1220l-28 -32l32 -28q0 2 24 28v4q0 6 -28 28zM692 1156l-28 -32q26 -24 28 -24q6 0 28 28q0 6 -28 28zM320 1008h12l28 -8v-8l-8 -12q-22 4 -32 4q-16 -4 -16 -24q0 -17 20 -24q26 8 28 8l12 -16q-13 -10 -36 -16q-52 9 -52 48q8 48 44 48zM372 1008h20
q8 -1 8 -8v-28h28v36h28v-92h-28v32h-28v-32h-28v92zM476 1008h64v-24h-44v-12h44v-16q0 -8 -8 -8l-8 4l-8 -4l-20 4v-12h40q8 -1 8 -8v-16h-76v84q1 8 8 8zM600 1008q52 -7 52 -44l-8 -32q8 -1 8 -8q0 -6 -16 -16q-10 8 -12 8q-22 -4 -32 -4q-33 0 -44 48q0 48 52 48z
M668 1008h12q8 -1 8 -8v-40q3 -24 12 -24h8q6 0 12 12v52l4 8l8 -4h4l8 4l4 -8v-48q-5 -40 -40 -40h-8q-36 0 -40 48v40q1 8 8 8zM764 1008h8l24 -4q8 4 12 4q8 -4 12 -4q8 4 12 4v-20q0 -8 -8 -8q-7 4 -16 4v-4l-8 4h-12v-12h44v-16q0 -8 -8 -8h-36v-12h12q4 0 4 4l8 -4h8
q4 0 4 4q8 -4 12 -4v-20h-20l-24 -4q-7 4 -20 4v-4q-8 4 -12 4v72zM852 1008l28 -4v4q48 -7 48 -32q-3 -28 -20 -28l24 -32l-8 -4h-16q-3 0 -32 32h-4v-16l4 -8l-8 -4h-24v4q0 8 4 8l-4 28l4 40h-4q4 12 8 12zM940 1004h72v-16q0 -8 -8 -8h-36v-8h40v-24h-40v-12h44v-16
q0 -8 -8 -8h-56q-8 0 -8 8v84zM1024 1004h48q36 0 40 -48q0 -42 -64 -44h-16q-8 0 -8 8v84zM576 956q6 -20 28 -20q20 6 20 28q-8 18 -16 20h-16q-16 -6 -16 -28zM872 984v-20h20q8 0 8 8v4q0 8 -8 8h-20zM1052 980v-44h4q22 0 28 16v16q0 6 -12 12h-20zM208 680v-8
q13 -68 64 -68h40q20 10 20 32v16q-16 0 -16 20q0 40 76 40q0 5 16 8v-4q-75 -248 -96 -252h-8q-9 0 -12 20q0 7 20 44q-20 36 -52 36h-12q-64 -9 -64 -64v-8q0 -58 72 -84q21 -4 40 -4h16q125 0 164 172q24 53 84 228q-19 12 -52 12h-24q-31 0 -60 -36q-51 -22 -156 -36
q-60 -21 -60 -64zM796 460l-4 8v12q0 19 32 136q-10 40 -44 40h-28q-17 0 -64 -20v8l4 8q-16 8 -44 8h-40q-35 0 -48 -44q-64 -198 -64 -208q24 -12 68 -12q60 0 60 60q41 132 56 132q12 0 12 4q16 -6 16 -12q-36 -93 -36 -124v-8q0 -39 56 -48q40 0 108 36l-8 -24
q16 -16 56 -16q68 0 68 32q22 160 76 160h12q8 -1 8 -8v-4q0 -27 -52 -52l-4 -20q0 -104 84 -104q87 0 144 108l-16 12h-8q-35 -60 -80 -60h-8q-24 10 -24 36v16l56 36q20 37 20 56v8q0 41 -60 48q-16 0 -84 -24q0 4 -4 4q60 154 60 160q-19 12 -60 12h-36q-30 0 -40 -68
q-11 -12 -80 -236q-45 -48 -60 -48zM208 312v-4q203 -236 476 -236h32q251 0 448 204q24 28 24 32q-502 4 -748 4h-232zM516 244h40v-8h-32v-20h32v-8h-32v-16h28q8 -1 8 -8h-44v60zM580 244h20q6 0 12 -12h-4l-24 4q-8 -1 -8 -8v-8q40 -4 40 -20q-6 -20 -28 -20
q-24 8 -24 16l8 4q0 -9 20 -12l16 8q0 12 -40 20v16q0 6 12 12zM616 244h48v-8h-20v-52h-8v52h-20v8zM716 244q12 0 24 -16q0 -19 -40 -24l-4 -8q1 -8 8 -8h32v-8h-28l-20 4v4q0 28 28 28h12q0 4 4 12l-12 8h-12l-16 -12v8q4 12 24 12zM772 244h4q6 0 16 -16v-32
q-6 -16 -28 -16q-20 6 -20 28v8q0 28 28 28zM820 244v-56h12q0 -8 -8 -8h-20v8h8v44h-8v8q9 0 16 4zM840 244h36q8 -1 8 -8h-36v-16h24q8 -2 16 -20q-6 -20 -28 -20q-20 3 -20 12v8l16 -12h12q6 0 12 12q0 6 -12 12h-28v32zM752 224v-24q0 -6 12 -12h8q6 0 12 12v24
q0 6 -12 12h-8q-6 0 -12 -12z" />
    <glyph glyph-name=".null" horiz-adv-x="0" 
 />
    <glyph glyph-name=".null" horiz-adv-x="0" 
 />
    <glyph glyph-name="nonmarkingreturn" horiz-adv-x="508" 
 />
    <glyph glyph-name="space" unicode=" " horiz-adv-x="256" 
 />
    <glyph glyph-name="space" unicode="&#xa0;" horiz-adv-x="256" 
 />
    <glyph glyph-name="exclam" unicode="!" 
d="M39 -45q-8 9 -17 18q0 11 -44 66l22 206q3 22 22 22h98q11 0 11 -11q36 22 47 23q0 -11 11 -11q4 22 22 22h11q0 -33 33 -33q-12 -70 -27 -77l11 -21v-11l-20 -109l11 -22q-22 -3 -22 -22v-4zM209 423l18 9l9 -17v-5l-220 -10l23 168l-11 21l11 22q0 11 -11 11l11 55
q0 12 -11 33q11 21 11 32h-11l11 22l-11 22q33 93 33 120q-11 0 -11 11h11l-11 22q11 131 22 142l-11 22q22 56 22 77l-8 239q3 22 22 22h98q11 0 11 -11q36 22 47 23q0 -11 11 -11q4 22 22 22h11q0 -33 33 -33q-18 -197 -29 -284q0 -11 11 -11q-35 -240 -43 -262
q10 -33 21 -33l-11 -22v-11l11 -22h-11q0 -11 11 -11q-8 -109 -21 -109q0 -11 10 -11q-39 -212 -54 -219l2 -4z" />
    <glyph glyph-name="quotedbl" unicode="&#x22;" horiz-adv-x="597" 
d="M250 1467h11q0 -33 33 -33q-12 -70 -27 -77l11 -21v-11l-20 -109l11 -22q-22 -3 -22 -22v-87l-55 -11v-11h44v-55q0 -22 -22 -22q0 11 -11 11q0 -11 -11 -11q0 25 -131 164q0 11 -44 66l22 206q3 22 22 22h98q11 0 11 -11q36 22 47 23q0 -11 11 -11q4 22 22 22zM214 910
h11q0 -12 11 -33h-22v33zM537 1467h11q0 -33 33 -33q-12 -70 -27 -77l11 -21v-11l-20 -109l11 -22q-22 -3 -22 -22v-87l-55 -11v-11h44v-55q0 -22 -22 -22q0 11 -11 11q0 -11 -11 -11q0 25 -131 164q0 11 -44 66l22 206q3 22 22 22h98q11 0 11 -11q36 22 47 23q0 -11 11 -11
q4 22 22 22z" />
    <glyph glyph-name="numbersign" unicode="#" horiz-adv-x="799" 
d="M169 233v-11q35 0 52 33h-11q-41 -4 -41 -22zM126 -31q15 0 32 -32h-11q-21 0 -21 22v10zM350 797l-3 -163q-18 -22 -44 -88q61 1 109 3q3 5 3 14v10q0 30 -21 65l-2 -1q13 93 30 164q-34 -2 -72 -4zM92 552q6 32 12 32l-11 22l11 43l-11 21q11 19 11 44h-11q9 43 22 43
l-11 21v7q-14 0 -29 -1q0 16 -30 20l-18 186l105 10h2q6 41 13 145q-11 0 -11 11q22 0 22 21l-11 22q11 21 11 32q-11 0 -11 11h11q-32 83 -86 140v11q25 0 107 43h22q193 -7 193 -54v-21q0 -24 -10 -43l10 -22l-10 -22q0 -10 10 -10q-14 -144 -32 -205q0 -11 11 -11
q-3 -35 -7 -56q44 1 80 3l-9 42q22 81 22 97h-11q11 65 21 65l-10 22v10q0 11 10 11l-10 22v97q0 27 43 32l10 108h107l21 -11v11q65 0 65 -129t-22 -195l11 -21l-21 -65v-32q-22 0 -22 -33l11 -21q-1 -1 -1 -3l107 -13q10 2 15 4l-109 -191q-12 4 -24 7q-14 -112 -31 -160
q11 -21 11 -33l-22 -10l11 -22v-23l138 -17q10 2 15 4l-109 -191q-30 10 -65 13q-12 -88 -12 -131q-21 0 -21 -11t11 -11q-45 -441 -78 -478l11 -65v-11h-21l-90 201v-8q-21 0 -21 21v11q7 -1 12 -4l-45 101l11 22q17 202 17 210q11 21 11 33q-11 0 -11 11q22 0 22 21v11
q0 11 -11 11q11 25 17 52q-41 -3 -90 -6l-35 -133q11 -21 11 -32h-11q11 -21 11 -32l-11 -22l11 -21q-29 -162 -54 -162q-117 72 -117 118q-33 0 -33 -32h-21q0 11 11 32q0 15 -22 119q23 62 29 155q-7 -1 -15 -1q0 16 -30 20l-18 186z" />
    <glyph glyph-name="dollar" unicode="$" horiz-adv-x="634" 
d="M258 1434l15 162q3 22 19 22h82q9 0 9 -11q31 22 40 23q0 -11 9 -11q4 22 19 22h9q0 -33 28 -33q-10 -70 -23 -77l10 -21v-11l-12 -79q172 -71 186 -90l-11 -54v-143q-27 0 -196 -82l-33 25q16 98 16 115h-10q-19 -10 -43 -10l-10 21q-75 -28 -75 -53l11 -21
q-11 -19 -11 -43h11q-11 -53 -21 -53l10 -21q-19 -39 -32 -107q11 -20 11 -32h53q101 -24 139 -52q19 11 43 11q0 -29 85 -64q0 -10 10 -10q-3 -99 -11 -129q11 -21 11 -32q-11 0 -11 -11h11l-11 -21q0 -11 11 -11l-11 -21q0 -11 11 -11l-11 -21v-64l11 -21h-11l11 -21v-11
h-22q22 -68 22 -75q-27 -104 -107 -255q-76 0 -122 -38l8 -19v-11l-17 -109l9 -22q-18 -3 -18 -22v-4l-143 -36l-14 18q0 11 -37 66l13 144q-3 1 -8 1l-75 -10q0 14 -85 138v42q0 24 11 43q-11 21 -11 32q11 0 11 11h-11l11 21q0 10 -11 10l11 22l-11 21q58 38 181 85
q0 8 30 22l23 -19q2 -45 11 -45l-11 -22q0 -10 11 -10q-18 -40 -32 -171l42 -10l64 10q0 -10 11 -10l21 32v74q0 24 11 43l-11 21q11 58 11 96v10q0 11 -11 11l11 21q0 11 -11 11l21 53q0 11 -10 11l10 53v21l-21 -10h-11q-21 0 -21 21l-42 -21q0 10 -11 10v-10
q-47 15 -85 42q-19 -11 -43 -11q0 30 -85 64l-10 22l10 63l-21 -10h-11v10l43 75v32q0 74 -32 74v128l11 21q-18 0 -32 21q52 192 149 192l74 85q13 -1 24 -2z" />
    <glyph glyph-name="percent" unicode="%" horiz-adv-x="524" 
d="M511 1452q12 0 34 -11l66 11q34 -11 35 -22l22 11h33l1 -11q-29 0 -50 -78h11q-48 -163 -94 -211q4 -57 -109 -311q3 -40 -130 -322l-80 -267q6 0 -87.5 -124t-113.5 -142l2 -22h-11l-4 44q11 0 11 11h-12q0 -12 -104 -89q-1 11 -12 11q1 -11 -10 -11l-1 11l10 23
q-12 0 -12 11q26 33 64 33q-2 22 -35 22l-1 11l37 89h-11q137 279 198 589q92 132 168 411q41 49 87.5 191t97.5 142zM125 430l1 -22q23 0 24 -22q22 0 21 22zM185 363l1 -11h45l-2 23q-19 -12 -44 -12zM-101 -92h11l2 -22h-34q2 22 21 22zM-128 -170v-11q2 -22 -20 -22
l-1 11q2 22 21 22z" />
    <glyph glyph-name="ampersand" unicode="&#x26;" horiz-adv-x="653" 
d="M191 0q-3 21 -21 21l-75 -10q0 14 -85 138v43q0 24 11 43q-11 21 -11 32q11 0 11 11h-11l11 21q0 11 -11 11l11 21q0 11 -11 11l11 21v64l-11 21h11l-11 22v10h21q0 19 -21 64q71 46 117 139q-61 182 -74 182l10 21q-21 35 -21 64v171l11 21q-18 0 -32 21q53 193 149 193
l75 85q139 -11 139 -21q53 10 53 21q208 -85 224 -107l-11 -74v-107q0 -36 -170 -86h-32q-16 0 -32 32v32q0 29 21 64h-11q-18 -10 -42 -10l-11 21q-75 -28 -75 -53l11 -22q-11 -18 -11 -42h11q-11 -54 -21 -54l10 -21q-21 -35 -21 -53q21 -126 21 -160h11q127 0 181 -97
q0 -10 -10 -10l10 -54v-21q-11 0 -32 -11l-21 11l-21 -11q-46 11 -107 43q-64 -148 -64 -224v-21q0 -11 11 -11l-11 -21q0 -11 11 -11q-19 -39 -33 -171q38 -11 43 -11l64 11q0 -11 11 -11l21 32v75q0 24 11 43q-11 19 -11 43q22 34 22 53q-11 0 -11 11h11q47 0 192 -150
l-11 -21q0 -11 11 -11q-22 -118 -75 -203q-81 0 -128 -42q-24 0 -43 10z" />
    <glyph glyph-name="quotesingle" unicode="'" 
d="M250 1467h11q0 -33 33 -33q-12 -70 -27 -77l11 -21v-11l-20 -109l11 -22q-22 -3 -22 -22v-87l-55 -11v-11h44v-55q0 -22 -22 -22q0 11 -11 11q0 -11 -11 -11q0 25 -131 164q0 11 -44 66l22 206q3 22 22 22h98q11 0 11 -11q36 22 47 23q0 -11 11 -11q4 22 22 22zM214 910
h11q0 -12 11 -33h-22v33z" />
    <glyph glyph-name="parenleft" unicode="(" horiz-adv-x="467" 
d="M396 -72q-13 -8 -23 -17q-24 0 -43 10l-139 -21q0 21 -21 21l-75 -10q0 14 -85 138v43q0 24 11 43q-11 21 -11 32q11 0 11 11h-11l11 21q0 11 -11 11l11 21q0 11 -11 11l11 21v64l-11 21h11l-11 22v10h21q-21 68 -21 75q21 39 31 85l-10 197q0 30 21 484l11 21
q-18 0 -32 21q53 193 149 193l75 85q129 -11 129 -21q53 10 53 21q46 -19 83 -35l-100 -188q-12 -3 -26 -3l-11 21q-95 -58 -95 -83l11 -22q-11 -18 -11 -42h11q-11 -54 -21 -54l10 -21q-19 -39 -32 -107q11 -20 11 -32h-11q0 -110 11 -110l-11 -75l11 -53h-11l11 -22
q0 -186 -22 -388v-21q0 -11 11 -11l-11 -21q0 -11 11 -11q-19 -39 -33 -171l43 -11l64 11q0 -11 11 -11l1 1z" />
    <glyph glyph-name="parenright" unicode=")" horiz-adv-x="467" 
d="M24 1513q13 8 23 17q24 0 43 -10l139 21q0 -21 21 -21l75 10q0 -14 85 -138v-43q0 -24 -11 -43q11 -21 11 -32q-11 0 -11 -11h11l-11 -21q0 -11 11 -11l-11 -21q0 -11 11 -11l-11 -21v-64l11 -21h-11l11 -22v-10h-21q21 -68 21 -75q-21 -39 -31 -85l10 -197
q0 -30 -21 -484l-11 -21q18 0 32 -21q-53 -193 -149 -193l-75 -85q-129 11 -129 21q-53 -10 -53 -21q-46 19 -83 35l100 188q12 3 26 3l11 -21q95 58 95 83l-11 22q11 18 11 42h-11q11 54 21 54l-10 21q19 39 32 107q-11 20 -11 32h11q0 110 -11 110l11 75l-11 53h11l-11 22
q0 186 22 388v21q0 11 -11 11l11 21q0 11 -11 11q19 39 33 171l-43 11l-64 -11q0 11 -11 11l-1 -1z" />
    <glyph glyph-name="asterisk" unicode="*" 
d="M214 910h11q0 -12 11 -33h-22v33zM269 1358l150 -35q-23 -50 -157 -84l-4 -23l11 -22q-22 -3 -22 -22v-87l-55 -11v-11h44v-55q0 -22 -22 -22q0 11 -11 11q0 -11 -11 -11q0 20 -84 113l-69 -73q-30 42 1 160q-9 13 -23 30l4 40l-120 28q21 45 131 77l7 61q3 22 22 22h98
q11 0 11 -11q36 22 47 23q0 -11 11 -11q4 22 22 22h11q0 -33 33 -33q-11 -65 -25 -76z" />
    <glyph glyph-name="plus" unicode="+" horiz-adv-x="512" 
d="M399 790l28 -1q75 -35 93 -36q12 -7 24 -13l-109 -104h-6q-31 2 -42 -11l-20 5l-13 -73l11 -22q-22 -3 -22 -22v-4l-169 -36q-8 9 -17 18q0 11 -44 66l9 87q-23 -7 -128 -7q10 21 -43 25l3 7q5 12 42 12q3 7 -15 8q5 7 52 28q-18 1 -15 8l30 63q5 12 42 12l62 -2l11 106
q3 22 22 22h98q11 0 11 -11q36 22 47 23q0 -11 11 -11q4 22 22 22h11q0 -33 33 -33q-12 -70 -27 -77l11 -21v-11z" />
    <glyph glyph-name="comma" unicode="," 
d="M211 290h11q0 -33 33 -33q-12 -70 -27 -77l11 -21v-11l-20 -109l11 -22q-22 -3 -22 -22v-87l-55 -11v-11h44v-55q0 -22 -22 -22q0 11 -11 11q0 -11 -11 -11q0 25 -131 164q0 11 -44 66l22 206q3 22 22 22h98q11 0 11 -11q36 22 47 23q0 -11 11 -11q4 22 22 22zM175 -267
h11q0 -12 11 -33h-22v33z" />
    <glyph glyph-name="hyphen" unicode="-" horiz-adv-x="512" 
d="M544 740l-109 -104h-6q-31 2 -42 -11l-32 9h-181l-18 2l-30 9q-16 -8 -132 -8q10 21 -43 25l3 7q5 12 42 12q3 7 -15 8q5 7 52 28q-18 1 -15 8l30 63q5 12 42 12l337 -11q75 -35 93 -36q12 -7 24 -13z" />
    <glyph glyph-name="hyphen" unicode="&#xad;" horiz-adv-x="512" 
d="M544 740l-109 -104h-6q-31 2 -42 -11l-32 9h-181l-18 2l-30 9q-16 -8 -132 -8q10 21 -43 25l3 7q5 12 42 12q3 7 -15 8q5 7 52 28q-18 1 -15 8l30 63q5 12 42 12l337 -11q75 -35 93 -36q12 -7 24 -13z" />
    <glyph glyph-name="period" unicode="." 
d="M39 -45q-8 9 -17 18q0 11 -44 66l22 206q3 22 22 22h98q11 0 11 -11q36 22 47 23q0 -11 11 -11q4 22 22 22h11q0 -33 33 -33q-12 -70 -27 -77l11 -21v-11l-20 -109l11 -22q-22 -3 -22 -22v-4z" />
    <glyph glyph-name="slash" unicode="/" horiz-adv-x="524" 
d="M511 1452q12 0 34 -11l66 11q34 -11 35 -22l22 11h33l1 -11q-29 0 -50 -78h11q-48 -163 -94 -211q4 -57 -109 -311q3 -40 -130 -322l-80 -267q6 0 -87.5 -124t-113.5 -142l2 -22h-11l-4 44q11 0 11 11h-12q0 -12 -104 -89q-1 11 -12 11q1 -11 -10 -11l-1 11l10 23
q-12 0 -12 11q26 33 64 33q-2 22 -35 22l-1 11l37 89h-11q137 279 198 589q92 132 168 411q41 49 87.5 191t97.5 142zM125 430l1 -22q23 0 24 -22q22 0 21 22zM185 363l1 -11h45l-2 23q-19 -12 -44 -12zM-101 -92h11l2 -22h-34q2 22 21 22zM-128 -170v-11q2 -22 -20 -22
l-1 11q2 22 21 22z" />
    <glyph glyph-name="zero" unicode="0" horiz-adv-x="659" 
d="M245 1448q138 -11 138 -21q53 10 53 21q47 -15 85 -43q19 11 43 11q0 -29 85 -64q0 -10 11 -10q-14 -119 -21 -149q10 -21 10 -32q-10 0 -10 -11h10l-10 -21q0 -11 10 -11l-10 -21q0 -11 10 -11l-10 -21v-64l10 -21h-10l10 -22v-10h-21q21 -68 21 -75q-21 -39 -21 -85
l11 -96q0 -30 -54 -170v-11q0 -74 32 -74v-128l-10 -21q17 0 32 -21q-49 -181 -128 -181q-95 -87 -96 -96q-138 11 -138 21q-54 -10 -54 -21q-46 15 -85 43q-18 -11 -42 -11q0 29 -85 64q0 10 -11 10q13 130 21 149q-10 21 -10 32q10 0 10 11h-10l10 21q0 11 -10 11l10 21
q0 11 -10 11l10 21v64l-10 21h10l-10 22v10h21q-21 68 -21 75q21 39 21 85l-11 96q0 30 53 170v11q0 74 -31 74v128l10 21q-17 0 -32 21q49 181 128 181q96 87 96 96zM309 1237v-24l-11 -83h11l-43 -201q11 -23 11 -36h-11q0 -12 11 -12l-11 -83l11 -59h-11l11 -24
q0 -95 -32 -320v-23q0 -12 10 -12l-10 -24q0 -12 10 -12l-21 -59q0 -12 11 -12l-11 -59v-24l21 12h11q21 -4 21 -24q35 24 64 24v24l11 83h-11q11 75 43 189l-11 24v12q0 12 11 12q0 12 -11 12l11 83l-11 59h11l-11 24q0 95 32 320v23q0 12 -11 12l11 24q0 12 -11 12l22 59
q0 12 -11 12l11 59v24l-22 -12h-10q-22 0 -22 24q-34 -24 -63 -24z" />
    <glyph glyph-name="one" unicode="1" 
d="M286 1464h11q0 -33 33 -33q-18 -197 -29 -284q0 -11 11 -11q-35 -240 -43 -262q10 -33 21 -33l-11 -22v-11l11 -22h-11q0 -11 11 -11q-8 -109 -21 -109q0 -11 10 -11q-39 -212 -54 -219l11 -21v-11q0 -11 -11 -11l11 -22v-22q0 -25 -11 -44l11 -22q-11 -60 -11 -87h11
l-11 -22l11 -22q-22 -3 -22 -22v-87l-55 -11v-11h44v-55q0 -22 -22 -22q0 11 -11 11q0 -11 -11 -11q0 25 -131 164q0 11 -44 66l55 394l-11 21l11 22q0 11 -11 11l11 55q0 12 -11 33q11 21 11 32h-11l11 22l-11 22q33 93 33 120q-11 0 -11 11h11l-11 22q11 131 22 142
l-11 22q22 56 22 77l-8 239q3 22 22 22h98q11 0 11 -11q36 22 47 23q0 -11 11 -11q4 22 22 22zM148 415v-11q54 28 55 43h-11q-44 -16 -44 -32zM72 393v-22h33v11q-12 0 -33 11zM181 -132h11q0 -12 11 -33h-22v33z" />
    <glyph glyph-name="two" unicode="2" horiz-adv-x="634" 
d="M280 997l-26 -19q-28 14 -27 22q-119 47 -173 85l13 21l-8 22q11 0 12 10l-9 21h11q1 11 -10 11q1 11 14 32q-9 19 -6 43l4 42q98 124 99 138l74 -10q21 0 23 21l136 -21q20 10 44 10q43 -42 123 -42q64 -151 81 -255q-1 -7 -30 -75h22l-1 -11l-13 -21h11l-13 -21l-7 -64
l9 -21q-11 0 -12 -11l9 -21q-11 0 -12 -11l8 -21h-11q-1 -11 10 -11q-1 -11 -14 -32q5 -30 -2 -129q-10 0 -11 -10q-89 -35 -92 -64q-24 0 -42 11q-40 -28 -144 -52h-53q-1 -12 -14 -32q6 -68 21 -107l-25 -51q10 0 15 -53h-11q-2 -24 7 -43l-13 -21q-3 -25 83 -23l12 21
q24 0 42 -10h10q1 17 -5 115l36 25q161 -82 188 -82l-22 -213l5 -54q-18 -21 -227 -36q1 11 -51 21q-1 -10 -140 -21l-143 15q-47 0 -49 192q16 21 34 21l-9 21l10 198q32 0 40 74l3 32l-35 75l1 10h11l20 -10l-4 63l12 22q89 34 92 64q24 0 42 -11q41 27 89 42l-1 -10
q11 0 12 10l40 -21q2 21 23 21h11l20 -10l2 21l-4 53q10 0 11 11l-16 53q11 0 12 11l-9 21q11 0 12 11l2 10l12 214l-17 32q-11 0 -12 -10l-63 10l-43 -10q0 -111 14 -151q-11 0 -12 -10l9 -22q-9 0 -15 -45z" />
    <glyph glyph-name="three" unicode="3" horiz-adv-x="653" 
d="M460 1441q3 -21 21 -21l75 10q0 -14 85 -138v-43q0 -24 -11 -43q11 -21 11 -32q-11 0 -11 -11h11l-11 -21q0 -11 11 -11l-11 -21q0 -11 11 -11l-11 -21v-64l11 -21h-11l11 -22v-10h-21q0 -19 21 -64q-71 -46 -117 -139q61 -182 74 -182l-10 -21q21 -35 21 -64v-171
l-11 -21q18 0 32 -21q-53 -193 -149 -193l-75 -85q-138 11 -138 21q-54 -10 -54 -21q-208 85 -224 107l11 74v107q0 36 170 86h32q16 0 33 -32v-32q0 -29 -22 -64h11q19 10 43 10l10 -21q75 28 75 53l-11 22q11 18 11 42h-11q11 54 22 54l-11 21q21 35 21 53
q-21 126 -21 160h-11q-127 0 -181 97q0 10 10 10l-10 54v21q11 0 32 11l21 -11l22 11q45 -11 106 -43q64 148 64 224v21q0 11 -10 11l10 21q0 11 -10 11q18 39 32 171q-38 11 -43 11l-64 -11q0 11 -11 11l-21 -32v-75q0 -24 -11 -43q11 -19 11 -43q-21 -34 -21 -53
q10 0 10 -11h-10q-48 0 -193 150l11 21q0 11 -11 11q22 118 75 203q81 0 128 42q24 0 43 -10z" />
    <glyph glyph-name="four" unicode="4" horiz-adv-x="670" 
d="M375 34q21 -3 21 -22v-10q-21 0 -21 21v11zM575 420q-19 -127 -19 -181q-21 0 -21 -11t11 -11q-11 -162 -44 -199l11 -65v-11h-21l-150 189l11 22q-11 56 -11 64q11 21 11 33q-11 0 -11 11q22 0 22 21v11q0 11 -11 11q-18 49 -15 131h-114l-186 11l-11 21q-29 19 -29 44
h-11q9 43 22 43l-11 21q0 33 22 87l-11 21q21 55 21 86h-10q10 0 27 376q-11 0 -11 11q22 0 22 21l-11 22q11 21 11 32q-11 0 -11 11h11q-32 83 -86 140v11q25 0 107 43h22q183 -7 183 -54v-21q0 -24 -10 -43l10 -22l-10 -22q0 -10 10 -10q-14 -144 -32 -205q0 -11 11 -11
q-13 -289 -28 -289q0 -11 11 -11l-11 -54v-11q11 -73 33 -75l70 10q24 0 65 98h-22v10q0 11 11 11l-11 22l11 21l35 257q22 81 22 97h-11q11 65 21 65l-10 22v10q0 11 10 11l-10 22v97q0 27 43 32l10 108h87l21 -11v11q65 0 65 -129t-22 -195l11 -21l-21 -65v-32
q-22 0 -22 -33l11 -21q-11 -19 -11 -43l22 10q0 -21 10 -21q0 -13 -32 -54l11 -22l-22 -43q0 -11 11 -11q-14 -122 -32 -172q10 -19 11 -31q117 -41 93 -115q-29 -86 -118 -83z" />
    <glyph glyph-name="five" unicode="5" horiz-adv-x="634" 
d="M234 439q2 -45 11 -45l-11 -22q0 -10 11 -10q-18 -40 -32 -171l42 -10l64 10q0 -10 11 -10l21 32v74q0 24 11 43l-11 21q11 58 11 96v10q0 11 -11 11l11 21q0 11 -11 11l21 53q0 11 -10 11l10 53v21l-21 -10h-11q-21 0 -21 21l-42 -21q0 10 -11 10v-10q-47 15 -85 42
q-19 -11 -43 -11q0 30 -85 64l-10 22l10 63l-21 -10h-11v10l43 75v32q0 74 -32 74l10 198l11 21q-18 0 -32 21q22 192 69 192l144 15q138 -11 138 -21q53 10 53 21q208 -15 224 -36l-11 -54v-213q-27 0 -196 -82l-33 25q16 98 16 115h-10q-19 -10 -43 -10l-10 21
q-85 2 -85 -23l11 -21q-11 -19 -11 -43h11q-11 -53 -21 -53l20 -51q-19 -39 -32 -107q11 -20 11 -32h53q101 -24 139 -52q19 11 43 11q0 -29 85 -64q0 -10 10 -10q-3 -99 -11 -129q11 -21 11 -32q-11 0 -11 -11h11l-11 -21q0 -11 11 -11l-11 -21q0 -11 11 -11l-11 -21v-64
l11 -21h-11l11 -21v-11h-22q22 -68 22 -75q-27 -104 -107 -255q-80 0 -127 -42q-24 0 -43 10l-138 -21q0 21 -21 21l-75 -10q0 14 -85 138v42q0 24 11 43q-11 21 -11 32q11 0 11 11h-11l11 21q0 10 -11 10l11 22l-11 21q58 38 181 85q0 8 30 22z" />
    <glyph glyph-name="six" unicode="6" horiz-adv-x="642" 
d="M335 690q-22 -1 -43 0l-28 -31q-7 -84 -28 -219v-22q0 -11 11 -11l-11 -21q0 -11 11 -11q-19 -39 -33 -171l43 -11l65 11q0 -11 10 -11q22 27 22 32v75q0 24 11 43q-11 19 -11 43q21 35 21 54q-10 0 -10 10h10q0 11 -10 11q7 75 21 75l-11 21q0 11 11 11q0 20 -21 86
q1 4 3 7zM266 866q113 28 123 20l53 11q27 0 27 -11l44 11q101 -50 77 -243h10q-21 -150 -32 -150l11 -22q-11 -20 -11 -32h11q-15 -60 -32 -85h21v-11l-11 -22h11l-11 -51q0 -11 11 -11l-11 -21q0 -11 11 -11q-11 -21 -11 -32q1 -54 -46 -130t-95 -76t-234 11q0 21 -21 21
l-75 -11q0 15 -86 140v43q0 24 11 43q-11 20 -11 32q11 0 11 10h-11l11 22q0 11 -11 11l11 21q0 11 -11 11l11 21v65l-11 21h11l-11 21v11h21q-21 68 -21 75q21 39 21 86l-10 96q0 31 53 172v11q0 75 -32 75v128l11 22q-18 0 -32 21q53 193 150 193l75 86q139 -11 139 -21
q54 10 54 21q209 -86 225 -107l-11 -54v-75q-30 0 -236 -86v11q22 44 22 64h-11q-19 -10 -43 -10l-10 21q-76 -28 -76 -53l11 -22q-11 -19 -11 -43h11q-11 -53 -21 -53l10 -22q-19 -39 -32 -107q11 -21 11 -32h-11q0 -11 11 -11z" />
    <glyph glyph-name="seven" unicode="7" horiz-adv-x="524" 
d="M511 1452q12 0 34 -11l66 11q34 -11 35 -22l22 11h33l1 -11q-29 0 -50 -78h11q-48 -163 -94 -211q4 -57 -109 -311q3 -40 -130 -322l-80 -267q6 0 -87.5 -124t-113.5 -142l2 -22h-11l-4 44q11 0 11 11h-12q0 -12 -104 -89q-1 11 -12 11q1 -11 -10 -11l-1 11l10 23
q-12 0 -12 11q26 33 64 33q-2 22 -35 22l-1 11l37 89h-11q137 279 198 589q92 132 168 411q41 49 37 100q-11 0 -12 11q11 0 10 11l-23 11l-54 -22q-45 11 -78 11l-22 -11q-129 93 -134 155q13 45 30 45h22q37 0 56 -11l66 11q33 0 34 -11l55 11h89l2 -22q56 44 107 44z
M125 430l1 -22q23 0 24 -22q22 0 21 22zM185 363l1 -11h45l-2 23q-19 -12 -44 -12zM-101 -92h11l2 -22h-34q2 22 21 22zM-128 -170v-11q2 -22 -20 -22l-1 11q2 22 21 22z" />
    <glyph glyph-name="eight" unicode="8" horiz-adv-x="653" 
d="M86 1177q-2 8 -11 8q22 118 75 203q81 0 128 42q24 0 43 -10l139 21q3 -21 21 -21l75 10q0 -14 85 -138v-43q0 -24 -11 -43q11 -21 11 -32q-11 0 -11 -11h11l-11 -21q0 -11 11 -11l-11 -21q0 -11 11 -11l-11 -21v-64l11 -21h-11l11 -22v-10h-21q0 -19 21 -64
q-71 -46 -117 -139q61 -182 74 -182l-10 -21q21 -35 21 -64v-171l-11 -21q18 0 32 -21q-53 -193 -149 -193l-75 -85q-138 11 -138 21q-54 -10 -54 -21q-208 85 -224 107l11 74l-13 215l3 64l-11 21h11l-10 22v10h21q1 19 -19 64q73 46 122 139q-56 182 -69 182l11 21
q-20 35 -19 64l50 167l-3 3l8 16zM213 371q12 -7 23 -29v-32q0 -29 -22 -64h11q19 10 43 10l10 -21q75 28 75 53l-11 22q11 18 11 42h-11q11 54 22 54l-11 21q21 35 21 53q-21 126 -21 160h-11q-39 0 -72 9q-53 -122 -55 -189l-1 -21q-1 -11 10 -11l-11 -21q-1 -11 10 -11
q-5 -10 -10 -25zM357 826q49 122 49 188v21q0 11 -10 11l10 21q0 11 -10 11q18 39 32 171q-38 11 -43 11l-64 -11q0 11 -11 11l-21 -32v-75q0 -24 -11 -43q11 -19 11 -43q-4 -6 -7 -11l4 -9q-12 -19 -18 -33q10 0 10 -11h-13q-2 -5 -2 -9q17 -126 16 -160h11q37 0 67 -8z
" />
    <glyph glyph-name="nine" unicode="9" horiz-adv-x="642" 
d="M268 744q22 1 43 0l28 31q7 84 28 219v22q0 11 -11 11l11 21q0 11 -11 11q19 39 33 171l-43 11l-65 -11q0 11 -10 11q-22 -27 -22 -32v-75q0 -24 -11 -43q11 -19 11 -43q-21 -35 -21 -54q10 0 10 -10h-10q0 -11 10 -11q-7 -75 -21 -75l11 -21q0 -11 -11 -11q0 -20 21 -86
q-1 -4 -3 -7zM337 568q-113 -28 -123 -20l-53 -11q-27 0 -27 11l-44 -11q-101 50 -77 243h-10q21 150 32 150l-11 22q11 20 11 32h-11q15 60 32 85h-21v11l11 22h-11l11 51q0 11 -11 11l11 21q0 11 -11 11q11 21 11 32q-1 54 46 130t95 76t234 -11q0 -21 21 -21l75 11
q0 -15 86 -140v-43q0 -24 -11 -43q11 -20 11 -32q-11 0 -11 -10h11l-11 -22q0 -11 11 -11l-11 -21q0 -11 11 -11l-11 -21v-65l11 -21h-11l11 -21v-11h-21q21 -68 21 -75q-21 -39 -21 -86l10 -96q0 -31 -53 -172v-11q0 -75 32 -75l-80 -148l-11 -22q18 0 32 -21
q-57 -125 -104 -208q-246 -232 -246 -207l-11 22q11 19 163 488h-11q11 53 21 53l-10 22q19 39 32 107q-11 21 -11 32h11q0 11 -11 11z" />
    <glyph glyph-name="colon" unicode=":" 
d="M39 -45q-8 9 -17 18q0 11 -44 66l22 206q3 22 22 22h98q11 0 11 -11q36 22 47 23q0 -11 11 -11q4 22 22 22h11q0 -33 33 -33q-12 -70 -27 -77l11 -21v-11l-20 -109l11 -22q-22 -3 -22 -22v-4zM69 689q-8 9 -17 18q0 11 -44 66l22 206q3 22 22 22h98q11 0 11 -11
q36 22 47 23q0 -11 11 -11q4 22 22 22h11q0 -33 33 -33q-12 -70 -27 -77l11 -21v-11l-20 -109l11 -22q-22 -3 -22 -22v-4z" />
    <glyph glyph-name="semicolon" unicode=";" 
d="M211 290h11q0 -33 33 -33q-12 -70 -27 -77l11 -21v-11l-20 -109l11 -22q-22 -3 -22 -22v-87l-55 -11v-11h44v-55q0 -22 -22 -22q0 11 -11 11q0 -11 -11 -11q0 25 -131 164q0 11 -44 66l22 206q3 22 22 22h98q11 0 11 -11q36 22 47 23q0 -11 11 -11q4 22 22 22zM175 -267
h11q0 -12 11 -33h-22v33zM69 689q-8 9 -17 18q0 11 -44 66l22 206q3 22 22 22h98q11 0 11 -11q36 22 47 23q0 -11 11 -11q4 22 22 22h11q0 -33 33 -33q-12 -70 -27 -77l11 -21v-11l-20 -109l11 -22q-22 -3 -22 -22v-4z" />
    <glyph glyph-name="semicolon" unicode="&#x37e;" 
d="M211 290h11q0 -33 33 -33q-12 -70 -27 -77l11 -21v-11l-20 -109l11 -22q-22 -3 -22 -22v-87l-55 -11v-11h44v-55q0 -22 -22 -22q0 11 -11 11q0 -11 -11 -11q0 25 -131 164q0 11 -44 66l22 206q3 22 22 22h98q11 0 11 -11q36 22 47 23q0 -11 11 -11q4 22 22 22zM175 -267
h11q0 -12 11 -33h-22v33zM69 689q-8 9 -17 18q0 11 -44 66l22 206q3 22 22 22h98q11 0 11 -11q36 22 47 23q0 -11 11 -11q4 22 22 22h11q0 -33 33 -33q-12 -70 -27 -77l11 -21v-11l-20 -109l11 -22q-22 -3 -22 -22v-4z" />
    <glyph glyph-name="less" unicode="&#x3c;" horiz-adv-x="467" 
d="M396 -72q-13 -8 -23 -17q-24 0 -43 10l-139 -21q0 21 -21 21l-75 -10q0 14 -85 138v43q0 24 11 43q-11 21 -11 32q11 0 11 11h-11l11 21q0 11 -11 11l11 21q0 11 -11 11l11 21v64l-11 21h11l-11 22v10h21q-21 68 -21 75q21 39 31 85l-10 197q0 30 21 484l11 21
q-18 0 -32 21q53 193 149 193l75 85q129 -11 129 -21q53 10 53 21q46 -19 83 -35l-100 -188q-12 -3 -26 -3l-11 21q-95 -58 -95 -83l11 -22q-11 -18 -11 -42h11q-11 -54 -21 -54l10 -21q-19 -39 -32 -107q11 -20 11 -32h-11q0 -110 11 -110l-11 -75l11 -53h-11l11 -22
q0 -186 -22 -388v-21q0 -11 11 -11l-11 -21q0 -11 11 -11q-19 -39 -33 -171l43 -11l64 11q0 -11 11 -11l1 1z" />
    <glyph glyph-name="equal" unicode="=" horiz-adv-x="512" 
d="M521 605l-109 -104h-6q-31 2 -42 -11l-32 9h-181l-18 2l-30 9q-16 -8 -132 -8q10 21 -43 25l3 7q5 12 42 12q3 7 -15 8q5 7 52 28q-18 1 -15 8l30 63q5 12 42 12l337 -11q75 -35 93 -36q12 -7 24 -13zM-55 774l108 105l6 -1q31 -2 42 12l32 -10h182l17 -2l31 -9
q16 9 132 8q-10 -21 43 -25l-3 -7q-6 -12 -42 -12q-4 -7 14 -8q-5 -7 -51 -28q18 -1 14 -8l-29 -63q-6 -12 -42 -11l-338 10q-75 35 -93 36q-12 7 -23 13z" />
    <glyph glyph-name="greater" unicode="&#x3e;" horiz-adv-x="467" 
d="M24 1513q13 8 23 17q24 0 43 -10l139 21q0 -21 21 -21l75 10q0 -14 85 -138v-43q0 -24 -11 -43q11 -21 11 -32q-11 0 -11 -11h11l-11 -21q0 -11 11 -11l-11 -21q0 -11 11 -11l-11 -21v-64l11 -21h-11l11 -22v-10h-21q21 -68 21 -75q-21 -39 -31 -85l10 -197
q0 -30 -21 -484l-11 -21q18 0 32 -21q-53 -193 -149 -193l-75 -85q-129 11 -129 21q-53 -10 -53 -21q-46 19 -83 35l100 188q12 3 26 3l11 -21q95 58 95 83l-11 22q11 18 11 42h-11q11 54 21 54l-10 21q19 39 32 107q-11 20 -11 32h11q0 110 -11 110l11 75l-11 53h11l-11 22
q0 186 22 388v21q0 11 -11 11l11 21q0 11 -11 11q19 39 33 171l-43 11l-64 -11q0 11 -11 11l-1 -1z" />
    <glyph glyph-name="question" unicode="?" horiz-adv-x="634" 
d="M19 410l2 37q32 0 40 74l3 32l-35 75l1 10h11l20 -10l-4 63l12 22q89 34 92 64q24 0 42 -11q41 27 89 42l-1 -10q11 0 12 10l40 -21q2 21 23 21h11l20 -10l2 21l-4 53q10 0 11 11l-16 53q11 0 12 11l-9 21q11 0 12 11l2 10l12 214l-17 32q-11 0 -12 -10l-63 10l-43 -10
q0 -111 14 -151q-11 0 -12 -10l9 -22q-9 0 -15 -45l-26 -19q-28 14 -27 22q-119 47 -173 85l13 21l-8 22q11 0 12 10l-9 21h11q1 11 -10 11q1 11 14 32q-9 19 -6 43l4 42q98 124 99 138l74 -10q21 0 23 21l136 -21q20 10 44 10q43 -42 123 -42q64 -151 81 -255
q-1 -7 -30 -75h22l-1 -11l-13 -21h11l-13 -21l-7 -64l9 -21q-11 0 -12 -11l9 -21q-11 0 -12 -11l8 -21h-11q-1 -11 10 -11q-1 -11 -14 -32q5 -30 -2 -129q-10 0 -11 -10q-89 -35 -92 -64q-24 0 -42 11q-40 -28 -144 -52h-53q-1 -12 -14 -32q6 -68 21 -107zM39 -45
q-8 9 -17 18q0 11 -44 66l22 206q3 22 22 22h98q11 0 11 -11q36 22 47 23q0 -11 11 -11q4 22 22 22h11q0 -33 33 -33q-12 -70 -27 -77l11 -21v-11l-20 -109l11 -22q-22 -3 -22 -22v-4z" />
    <glyph glyph-name="at" unicode="@" horiz-adv-x="586" 
d="M304 1436q235 0 235 -51v-184q0 -23 10 -41q-10 -18 -10 -41q10 -20 10 -31h-10l10 -20q0 -10 -10 -10l10 -21v-133q0 -10 11 -10l-21 -51q10 -18 10 -41q0 -10 -10 -10l10 -21v-112q0 -10 11 -10l-11 -21l11 -20h-11l11 -21q0 -10 -11 -10q8 -13 21 -143
q-10 -20 -10 -31q20 -33 20 -61h-10l10 -21v-20h-20q7 -41 20 -41l-10 -21q0 -10 10 -10l-10 -20v-31q0 -10 10 -10q0 -15 -31 -123h-10q0 11 -153 143q-14 137 -31 184h10l-20 62q-171 0 -184 -92l10 -21l-92 -358l-21 -10h-41q-81 186 -81 194h10l-10 21q10 18 10 41h-10
l-21 -10l-10 20q14 0 31 61q41 0 41 82q81 301 81 327h-10q23 63 62 103q0 10 -11 10q24 164 51 164q0 51 -20 51q31 52 31 102q0 10 -11 10q52 106 52 133v113q0 61 92 61h10zM314 986l-51 -153q20 -34 20 -52q-23 0 -30 -51q10 0 10 -10q-21 -3 -21 -20q0 -11 11 -11
q-11 -12 -11 -61l21 -10l82 20v11l-21 30q20 10 31 10v62q0 10 -10 10q0 10 10 10l-10 51v62q0 10 10 10l-10 20v21l10 51h-41zM478 66l20 -11q0 11 10 11l11 -21h-41v21zM508 35h52v-10h-52v10zM58 -57h41v-10h-41v10zM69 -78v-20h-41v10z" />
    <glyph glyph-name="A" unicode="A" horiz-adv-x="586" 
d="M304 1436q235 0 235 -51v-184q0 -23 10 -41q-10 -18 -10 -41q10 -20 10 -31h-10l10 -20q0 -10 -10 -10l10 -21v-133q0 -10 11 -10l-21 -51q10 -18 10 -41q0 -10 -10 -10l10 -21v-112q0 -10 11 -10l-11 -21l11 -20h-11l11 -21q0 -10 -11 -10q8 -13 21 -143
q-10 -20 -10 -31q20 -33 20 -61h-10l10 -21v-20h-20q7 -41 20 -41l-10 -21q0 -10 10 -10l-10 -20v-31q0 -10 10 -10q0 -15 -31 -123h-10q0 11 -153 143q-14 137 -31 184h10l-20 62q-171 0 -184 -92l10 -21l-92 -358l-21 -10h-41q-81 186 -81 194h10l-10 21q10 18 10 41h-10
l-21 -10l-10 20q14 0 31 61q41 0 41 82q81 301 81 327h-10q23 63 62 103q0 10 -11 10q24 164 51 164q0 51 -20 51q31 52 31 102q0 10 -11 10q52 106 52 133v113q0 61 92 61h10zM314 986l-51 -153q20 -34 20 -52q-23 0 -30 -51q10 0 10 -10q-21 -3 -21 -20q0 -11 11 -11
q-11 -12 -11 -61l21 -10l82 20v11l-21 30q20 10 31 10v62q0 10 -10 10q0 10 10 10l-10 51v62q0 10 10 10l-10 20v21l10 51h-41zM478 66l20 -11q0 11 10 11l11 -21h-41v21zM508 35h52v-10h-52v10zM58 -57h41v-10h-41v10zM69 -78v-20h-41v10z" />
    <glyph glyph-name="B" unicode="B" horiz-adv-x="642" 
d="M141 1436l43 -11q23 0 119 11l43 -11q6 0 44 11l130 -11l54 11q86 -133 86 -162v-22q0 -24 -11 -43q11 -21 11 -33h-11l11 -21q0 -11 -11 -11l11 -22q0 -11 -11 -11l11 -21l-11 -22h11q-11 -21 -11 -32q0 -17 22 -98q-22 -35 -22 -65v-11l11 -21q-11 0 -11 -11h11
q-55 -54 -116 -54l11 -22q-21 -3 -21 -22q32 0 86 -75v-33l-21 -292l-11 -22q17 0 32 -21q-54 -195 -111 -195l-76 -87q-141 11 -141 22l-65 -22q0 11 -11 11q0 -32 -32 -32l11 -22h-22l-21 11q-65 -76 -130 -76q0 12 -11 32h11q-22 36 -22 65v44q0 24 11 43q0 11 -11 11
l11 76v75q0 11 11 11l-11 22q0 11 11 11l-11 21v44l11 21h-11l11 22v11q0 11 -11 11q11 14 11 54h-11q0 18 21 65q-10 21 -10 32q10 21 10 33h-10l43 194h-11q22 152 33 152l-11 22q11 21 11 32h-11q15 61 32 87h-21v10l10 22h-10l10 22q0 11 -10 11l10 21q0 11 -10 11
l10 22l-10 54h10q-10 21 -10 32q0 12 10 33l-10 65v21q54 0 54 22zM325 1263l-22 -33v-32q0 -11 11 -11l-22 -76q11 -19 11 -43q-22 -35 -22 -54q11 0 11 -11h-11q0 -11 11 -11q-7 -76 -21 -76l10 -21q0 -11 -10 -11q0 -20 21 -87l-21 -75h10q141 131 141 162h-11
q11 76 22 76l-11 21v22q0 11 11 11l-11 22q0 62 22 216l-44 11l-64 -11q0 11 -11 11zM725 819h33q-40 -22 -62 -22h-11zM312 570q51 -19 51 -38q-77 -38 -127 -113q13 -67 13 -76l-38 -139h13q22 13 50 13l13 -26q88 33 88 64l-12 25q12 22 12 50h-12q12 63 25 63l-13 26
q0 24 26 88h-13l13 25v26l-26 38q19 0 38 50h-12q-89 -64 -89 -76zM260 -69h32q-11 -20 -11 -32h-32q11 21 11 32z" />
    <glyph glyph-name="C" unicode="C" horiz-adv-x="602" 
d="M255 1441q129 -11 129 -21q53 10 53 21q208 -85 224 -107l-11 -53v-195q-30 0 -234 -165v10q21 244 21 264h-11q-18 -10 -42 -10l-11 21q-85 -28 -85 -53l11 -22q-11 -18 -11 -42h11q-11 -54 -21 -54l10 -21q-19 -39 -32 -107q11 -20 11 -32h-11q0 -10 11 -10l-11 -75
l11 -53h-11l11 -22q0 -86 -22 -288v-21q0 -11 11 -11l-11 -21q0 -11 11 -11q-19 -39 -33 -171l43 -11l64 11q0 -11 11 -11l21 32v75q0 24 11 43q-11 19 -11 43q22 34 22 53q-11 0 -11 11h11q47 0 192 -150l-11 -21q0 -11 11 -11q-22 -118 -75 -203q-81 0 -128 -42
q-24 0 -43 10l-139 -21q0 21 -21 21l-75 -10q0 14 -85 138v43q0 24 11 43q-11 21 -11 32q11 0 11 11h-11l11 21q0 11 -11 11l11 21q0 11 -11 11l11 21v64l-11 21h11l-11 22v10h21q-21 68 -21 75q21 39 31 85l-10 97q0 30 21 384l11 21q-18 0 -32 21q53 193 149 193z" />
    <glyph glyph-name="D" unicode="D" horiz-adv-x="642" 
d="M130 1447q96 0 182 -32l138 21q4 -21 22 -21l74 11q0 -14 86 -139v-43q0 -24 -11 -42q11 -21 11 -33q-11 0 -11 -10h11l-11 -22q0 -10 11 -10l-11 -22q0 -10 11 -10l-11 -22v-64l11 -21h-11l11 -21v-11h-22l22 -75q-22 -39 -22 -85q0 -48 11 -64q-11 -118 -21 -427
q-11 0 -11 -11q17 0 32 -21q-53 -192 -149 -192l-75 -86q-139 11 -139 22l-64 -22q0 11 -11 11q-10 -32 -21 -32q-21 11 -32 11q-68 -75 -128 -75q0 11 -11 32h11q-21 35 -21 64v21l10 64q0 11 -10 11l10 75v75q0 10 11 10l-11 22q0 10 11 10l-11 22v42l11 22h-11l11 21v11
l-11 21h22l-11 21h21q0 22 -32 22v10q0 11 43 32q0 32 -32 32l11 54h-11q11 32 21 32q0 10 -10 10q0 14 32 150h-11q21 149 32 149l-11 22q11 20 11 32h-11q15 60 32 85h-21v11l11 21h-11l11 21q0 11 -11 11l11 21q0 11 -11 11q11 21 11 32q-1 54 -107 182v10q27 0 117 43
h43zM310 1226l-21 -32v-75q0 -24 -11 -43q11 -18 11 -42q-22 -35 -22 -54q11 0 11 -10h-11q0 -11 11 -11q-7 -75 -21 -75l10 -21q0 -11 -10 -11q0 -19 21 -85q-11 -32 -21 -32l10 -21q0 -11 -10 -11l10 -21v-11h-21v-86h21v-53h-21v-75q0 -10 11 -10q-22 -44 -22 -64l11 -43
l-32 -128h10q19 11 43 11l11 -22q75 28 75 54l-11 21q11 19 11 43h-11q11 53 21 53l-10 21q0 21 21 75h-11q11 64 22 64q0 11 -11 11l11 74l-11 54h11l-11 21q0 86 32 288v22q0 10 -11 10l11 22q0 10 -11 10q18 40 32 171q-37 11 -42 11l-64 -11q0 11 -11 11z" />
    <glyph glyph-name="E" unicode="E" horiz-adv-x="490" 
d="M103 1441q96 -14 120 -33v22h88q25 0 44 -11q19 11 44 11q36 0 55 -11l65 11h22q25 0 33 -55q-9 -42 -110 -142l-54 11q-9 0 -96 -11q0 11 -11 11q0 -29 -33 -77q9 -44 22 -44l-11 -22l11 -22h-11l11 -22v-11h-22q0 -11 11 -11q-22 -81 -22 -109l22 -77q33 0 118 22
l22 -11l22 11q21 -11 32 -11v-22l-11 -55q11 0 11 -11q-35 -66 -153 -110q0 11 -41 11q-19 -44 -44 -44v-43l-11 -55h11l-22 -66h22q-11 -33 -22 -33l11 -22q0 -21 -22 -110q22 -3 22 -21v-11q-33 -51 -33 -88l22 -11h22q110 0 129 33l22 -11l44 11q43 -11 76 -11v-11
q0 -26 -33 -77l-32 22q-59 -90 -154 -132l-22 11q-66 -22 -66 -33l-22 11q-58 -22 -175 -43q0 11 -44 43l22 55l-11 22q11 21 11 33q0 11 -11 11l11 55q0 25 -11 44q44 164 44 186l-22 44q22 104 44 143q-11 19 -11 43h11q0 11 -11 11q14 134 22 154h-11l11 22
q-11 21 -11 33h11l-11 22q0 75 33 164q-11 22 -11 33l11 22q0 11 -11 11l11 55v33l-11 22q11 0 11 11q-22 0 -22 22q0 11 11 11l-22 43h11q-18 36 -33 99l66 44q22 0 22 11zM-18 -50h11v-44h-11v44zM234 -72h11q0 -12 11 -33h-22v33z" />
    <glyph glyph-name="F" unicode="F" horiz-adv-x="490" 
d="M103 1441q96 -14 120 -33v22h88q25 0 44 -11q19 11 44 11q36 0 55 -11l65 11h22q25 0 33 -55q-9 -42 -110 -142l-54 11q-9 0 -96 -11q0 11 -11 11q0 -29 -33 -77q9 -44 22 -44l-11 -22l11 -22h-11l11 -22v-11h-22q0 -11 11 -11q-22 -81 -22 -109l22 -77q33 0 118 22
l22 -11l22 11q21 -11 32 -11v-22l-11 -55q11 0 11 -11q-35 -66 -153 -110q0 11 -41 11q-19 -44 -44 -44v-43l-11 -55h11l-22 -66h22q-11 -33 -22 -33l11 -22q0 -21 -22 -110q22 -3 22 -21v-11q-33 -51 -33 -88l22 -11h22q-92 -469 -92 -480l-22 11q-58 -22 -119 239
q0 11 -44 43l22 55l-11 22q11 21 11 33q0 11 -11 11l11 55q0 25 -11 44q44 164 44 186l-22 44q22 104 44 143q-11 19 -11 43h11q0 11 -11 11q14 134 22 154h-11l11 22q-11 21 -11 33h11l-11 22q0 75 33 164q-11 22 -11 33l11 22q0 11 -11 11l11 55v33l-11 22q11 0 11 11
q-22 0 -22 22q0 11 11 11l-22 43h11q-18 36 -33 99l66 44q22 0 22 11zM-18 -50h11v-44h-11v44zM178 -354h11q0 -12 -11 -33v33z" />
    <glyph glyph-name="G" unicode="G" horiz-adv-x="642" 
d="M487 0q-87 3 -165 32l-140 -21q0 21 -21 21l-75 -11q0 15 -86 140v43q0 24 11 43q-11 20 -11 32q11 0 11 10h-11l11 22q0 11 -11 11l11 21q0 11 -11 11l11 21v65l-11 21h11l-11 21v11h21q-21 68 -21 75q21 39 21 86l-10 96q0 31 53 172v11q0 75 -32 75v128l11 22
q-18 0 -32 21q53 193 150 193l75 86q139 -11 139 -21q54 10 54 21q209 -86 225 -107l-11 -54l11 -137q-27 0 -197 -115l-36 34q8 115 8 132h-11q-19 -10 -43 -10l-10 21q-76 -28 -76 -53l11 -22q-11 -19 -11 -43h11q-11 -53 -21 -53l10 -22q-19 -39 -32 -107q11 -21 11 -32
h-11q0 -11 11 -11l-11 -75l11 -54h-11l11 -21q0 -86 -32 -289v-22q0 -11 11 -11l-11 -21q0 -11 11 -11q-19 -39 -33 -171l43 -11l65 11q0 -11 10 -11q22 27 22 32v75q0 24 11 43q-11 19 -11 43q21 35 21 54q-10 0 -10 10h10q0 11 -10 11q7 75 21 75l-11 21q0 11 11 11
q0 20 -21 86q10 32 21 32l-4 7q-76 76 -79 129q10 45 24 45h18q29 0 44 -11l53 11q27 0 27 -11l44 11h71l1 -13q18 11 37 25h11q4 2 9 4l-15 -35q2 -1 6 -1q-10 -29 -20 -32l-2 -4q2 -7 11 -7q0 -13 -32 -150h10q-21 -150 -32 -150l11 -22q-11 -20 -11 -32h11
q-15 -60 -32 -85h21v-11l-11 -22h11l-11 -21q0 -11 11 -11l-11 -21q0 -11 11 -11q-11 -21 -11 -32q0 -22 19 -58z" />
    <glyph glyph-name="H" unicode="H" horiz-adv-x="670" 
d="M512 1501h107l21 -11v11q65 0 65 -129t-22 -195l11 -21l-21 -65v-32q-22 0 -22 -33l11 -21q-11 -19 -11 -43l22 10q0 -21 10 -21q0 -13 -32 -54l11 -22l-22 -43q0 -11 11 -11q-14 -122 -32 -172q11 -21 11 -33l-22 -10l11 -22v-21q0 -25 -11 -44q0 -10 11 -10
q-33 -199 -33 -270q-21 0 -21 -11t11 -11q-45 -441 -78 -478l11 -65v-11h-21l-144 322l11 22q17 202 17 210q11 21 11 33q-11 0 -11 11q22 0 22 21v11q0 11 -11 11q22 49 22 108l-11 21q21 55 21 86q-21 0 -21 22q21 0 21 22v10q0 30 -21 65l-22 -11l-21 11q-67 -7 -67 -22
l-34 22q-21 -22 -53 -108q15 0 32 -32h-11l11 -22q0 -86 -43 -86v-22l32 22v-11l-43 -162q11 -21 11 -32h-11q11 -21 11 -32l-11 -22l11 -21q-29 -162 -54 -162q-117 72 -117 118q-33 0 -33 -32h-21q0 11 11 32q0 15 -22 119q32 87 32 237q-10 21 -10 33l21 10q0 11 -11 11
q11 108 22 108l-11 22l11 43l-11 21q11 19 11 44h-11q9 43 22 43l-11 21q0 33 22 87l-11 21q21 55 21 86h-10q10 0 21 173q-11 0 -11 11q22 0 22 21l-11 22q11 21 11 32q-11 0 -11 11h11q-32 83 -86 140v11q25 0 107 43h22q193 -7 193 -54v-21q0 -24 -10 -43l10 -22l-10 -22
q0 -10 10 -10q-14 -144 -32 -205q0 -11 11 -11q-7 -86 -22 -86q0 -11 11 -11l-11 -54v-11q11 -73 33 -75q24 16 99 32q0 -22 11 -22q24 0 65 98h-22v10q0 11 11 11l-11 22l11 21l-11 54q22 81 22 97h-11q11 65 21 65l-10 22v10q0 11 10 11l-10 22v97q0 27 43 32zM69 433v-11
q35 0 52 33h-11q-41 -4 -41 -22zM377 -112q21 -3 21 -22v-10q-21 0 -21 21v11zM26 -31q15 0 32 -32h-11q-21 0 -21 22v10z" />
    <glyph glyph-name="I" unicode="I" 
d="M286 1464h11q0 -33 33 -33q-18 -197 -29 -284q0 -11 11 -11q-35 -240 -43 -262q10 -33 21 -33l-11 -22v-11l11 -22h-11q0 -11 11 -11q-8 -109 -21 -109q0 -11 10 -11q-39 -212 -54 -219l11 -21v-11q0 -11 -11 -11l11 -22v-22q0 -25 -11 -44l11 -22q-11 -60 -11 -87h11
l-11 -22l11 -22q-22 -3 -22 -22v-87l-55 -11v-11h44v-55q0 -22 -22 -22q0 11 -11 11q0 -11 -11 -11q0 25 -131 164q0 11 -44 66l55 394l-11 21l11 22q0 11 -11 11l11 55q0 12 -11 33q11 21 11 32h-11l11 22l-11 22q33 93 33 120q-11 0 -11 11h11l-11 22q11 131 22 142
l-11 22q22 56 22 77l-8 239q3 22 22 22h98q11 0 11 -11q36 22 47 23q0 -11 11 -11q4 22 22 22zM148 415v-11q54 28 55 43h-11q-44 -16 -44 -32zM72 393v-22h33v11q-12 0 -33 11zM181 -132h11q0 -12 11 -33h-22v33z" />
    <glyph glyph-name="J" unicode="J" horiz-adv-x="642" 
d="M29 361q48 23 197 143l17 -29q-19 -210 -19 -229h11q19 10 43 10l10 -21q85 28 85 53l-11 22q11 18 11 42h-11q11 54 22 54l-11 21q19 39 32 107q-11 20 -11 32h11q0 10 -11 10l11 75l-11 53h11l-11 22q0 86 22 288v21q0 11 -10 11l10 21q0 11 -10 11q18 39 32 171
l37 371l71 10q0 -14 105 -338v-43q0 -24 -11 -43q11 -21 11 -32q-11 0 -11 -11h11l-11 -21q0 -11 11 -11l-11 -21q0 -11 11 -11l-11 -21v-64l11 -21h-11l11 -22v-10h-21q21 -68 21 -75q-21 -39 -31 -85l10 -97q0 -30 -21 -384l-11 -21q18 0 32 -21q-53 -193 -149 -193
l-75 -85q-128 11 -128 21q-54 -10 -54 -21q-208 85 -224 107l11 53v166z" />
    <glyph glyph-name="K" unicode="K" horiz-adv-x="664" 
d="M239 523v-11q15 0 32 33h-11q-21 -4 -21 -22zM256 994q36 63 97 153h10q0 49 120 269q0 21 65 21q11 0 32 -11l64 11q32 -11 32 -21l22 10h32v-10q-28 0 -54 -76h11q-59 -158 -107 -204q-4 -72 -108 -269q10 0 10 -10q-10 0 -10 -11q10 0 10 -11h-10q21 -35 21 -54
q-11 0 -11 -10q11 0 11 -11h-11l11 -22l-11 -21q68 -108 86 -108l-10 -21h10l-10 -22v-21q42 0 64 -140h-11l11 -21q0 -11 -11 -11q272 -630 306 -662v-32h-11l11 -21v-22l-21 11q-299 339 -306 339q-26 0 -32 32l10 11q-79 0 -106 183q-17 0 -54 97q11 0 11 10
q-37 4 -76 151q11 0 11 11h-21v10h21q0 22 -43 22v11l22 32v10h-11q-64 125 -93 200l-14 -149q-16 -29 -38 -87q15 0 32 -32h-11l11 -22q0 -86 -43 -86v-22l32 22v-11l-43 -162q11 -21 11 -32h-11q11 -21 11 -32l-11 -22l11 -21q-29 -162 -54 -162q-97 72 -97 118
q-33 0 -33 -32h-21q0 11 11 32q0 15 -22 119q32 87 32 237q-10 21 -10 33l21 10q0 11 -11 11q11 108 22 108l-11 22l11 43l-11 21q11 19 11 44h-11q9 43 22 43l-11 21q0 33 22 87l-11 21q21 55 21 86h-10q10 0 21 173q-11 0 -11 11q22 0 22 21l-11 22q11 21 11 32
q-11 0 -11 11h11q-32 83 -86 140v11q25 0 107 43h22q183 -7 183 -54v-21q0 -24 -10 -43l10 -22l-10 -22q0 -10 10 -10q-14 -144 -32 -205q0 -11 11 -11q-3 -34 -7 -54zM196 59q15 0 32 -32h-11q-21 0 -21 22v10zM-75 34q21 -3 21 -22v-10q-21 0 -21 21v11z" />
    <glyph glyph-name="L" unicode="L" horiz-adv-x="490" 
d="M103 1441q116 116 140 97v22h88l-17 -327q0 11 -11 11q0 -29 -33 -77q9 -44 22 -44l-11 -22l11 -22h-11l11 -22v-11h-22q0 -11 11 -11q-22 -81 -22 -109q3 -297 -22 -297v-43l-11 -55h11l-22 -66h22q-11 -33 -22 -33l11 -22q0 -21 -22 -110q22 -3 22 -21v-11
q-33 -51 -33 -88l22 -11h22q110 0 129 33l22 -11l44 11q43 -11 76 -11v-11q0 -26 -33 -77l-32 22q-59 -90 -154 -132l-22 11q-66 -22 -66 -33l-22 11q-58 -22 -175 -43q0 11 -44 43l22 55l-11 22q11 21 11 33q0 11 -11 11l11 55q0 25 -11 44q44 164 44 186l-22 44
q22 104 44 143q-11 19 -11 43h11q0 11 -11 11q14 134 22 154h-11l11 22q-11 21 -11 33h11l-11 22q0 75 33 164q-11 22 -11 33l11 22q0 11 -11 11l11 55v33l-11 22q11 0 11 11q-22 0 -22 22q0 11 11 11l-22 43h11q-18 36 -33 99l66 44q22 0 22 11zM-18 -50h11v-44h-11v44z
M234 -72h11q0 -12 11 -33h-22v33z" />
    <glyph glyph-name="M" unicode="M" horiz-adv-x="906" 
d="M695 1441q42 -16 42 -32l54 11h53l21 -11v11q64 0 64 -128t-21 -192l11 -21l-22 -64v-32q-21 0 -21 -32l11 -22q-11 -18 -11 -42l21 10q0 -21 11 -21q0 -13 -32 -53l11 -22l-22 -42q0 -11 11 -11q-14 -120 -32 -170q11 -21 11 -32l-22 -11l11 -21v-22q0 -24 -11 -42
q0 -11 11 -11q-32 -197 -32 -266q-21 0 -21 -11t10 -11q-27 -350 -59 -387l10 -64v-10h-21l-111 376l11 21q0 8 -11 64q11 21 11 32q-11 0 -11 11q22 0 22 21v11q0 10 -11 10q21 49 21 107l-10 21q21 55 21 86q-21 0 -21 21q21 0 53 203v74l-11 75q22 0 22 21q-12 0 -32 11
q-47 -181 -64 -181l10 -22l-42 -106q-32 0 -32 -22q21 -34 21 -53h-11l-21 11l-11 -22q11 0 11 -10q-11 0 -11 -11q11 0 11 -11q-21 -3 -21 -21q0 -11 10 -11q-30 -74 -53 -213q-21 0 -21 -32h-22l-53 181q11 0 11 11q-11 0 -11 11h21q0 21 -53 21q0 32 32 32v11
q-43 0 -75 213q11 0 11 11q-21 0 -21 21h10q-14 64 -32 64q0 10 11 10l-32 128h-11q0 -210 -42 -330q15 0 32 -32h-11l11 -21q0 -86 -43 -86v-21l32 21v-10l-42 -160q10 -21 10 -32h-10q10 -21 10 -32l-10 -21l10 -22q-28 -160 -53 -160q-96 72 -96 118q-32 0 -32 -32h-21
q0 11 10 32q0 14 -21 117q32 86 32 234q-11 21 -11 32l22 11q0 11 -11 11q11 106 21 106l-10 22l10 42l-10 22q10 18 10 42h-10q8 43 21 43l-11 21q0 32 22 85l-11 22q21 54 21 85h-10q10 0 21 171q-11 0 -11 10q22 0 22 22l-11 21q11 20 11 32q-11 0 -11 10h11
q-32 82 -86 139v11q25 0 107 42h21q192 0 192 -74q29 0 43 -150q18 0 53 -149q-11 0 -11 -10q22 -4 22 -22v-42l-11 -22q32 0 32 -74h11q22 0 74 128h-10q14 53 42 53l-10 21q0 36 32 75h-11q60 149 85 181l-10 21q10 0 10 11h-10q21 64 53 64zM87 439v-11q16 0 32 32h-10
q-22 -3 -22 -21zM45 -19q15 0 32 -32h-11q-21 0 -21 21v11zM612 -40q22 -3 22 -21v-11q-22 0 -22 21v11z" />
    <glyph glyph-name="N" unicode="N" horiz-adv-x="723" 
d="M579 1492h93l23 -12v12q70 0 70 -140q0 -139 -23 -209l12 -24l-24 -70v-35q-23 0 -23 -35l12 -23q-12 -20 -12 -46l23 11q0 -23 12 -23q0 -14 -35 -58l12 -24l-24 -46q0 -12 12 -12q-15 -132 -35 -186q12 -23 12 -35l-23 -12l11 -23v-23q0 -27 -11 -47q0 -12 11 -12
q-35 -215 -35 -291q-23 0 -23 -11q0 -12 12 -12q-12 -100 -47 -140l12 -70v-11h-24l-139 128l11 23q-11 61 -11 70q11 22 11 35q-11 0 -11 11q23 0 23 24v11l-12 24q12 0 12 11h-12l12 24v11h-35v12q23 29 23 35q-39 35 -58 81h-12v12l12 23q-17 0 -47 128h-11l11 24
l-81 209q12 0 12 12l-24 12v-140q-27 -165 -46 -221q16 0 35 -35h-12l12 -24q0 -93 -47 -93v-23l35 23v-11l-47 -175q12 -23 12 -35h-12q12 -23 12 -35l-12 -23l12 -24q-31 -174 -58 -174q-105 78 -105 128q-35 0 -35 -35h-23q0 12 11 35q0 15 -23 128q35 94 35 256
q-12 23 -12 35l24 12q0 11 -12 11q12 117 23 117l-11 23q11 41 11 47l-11 23q11 20 11 47h-11q9 46 23 46l-12 24q0 35 24 93l-12 23q23 60 23 93h-11q11 0 23 187q-12 0 -12 11q23 0 23 24l-11 23q11 22 11 35q-11 0 -11 11h11q-34 90 -93 152v12q28 0 117 46h23
q198 0 198 -93q8 -175 58 -175l-11 -23q81 -172 81 -198q-11 -23 -11 -35q31 0 69 -151h12v34l-12 59q24 0 24 23h-24v12q0 11 12 11l-12 24l12 23l-12 58q24 87 24 105h-12q12 70 23 70l-11 23v12q0 11 11 11l-11 24v105q0 29 46 35zM78 339v-12q17 0 35 35h-12
q-23 -4 -23 -23zM463 -92q23 -4 23 -23v-12q-23 0 -23 23v12zM32 -162q16 0 34 -35h-11q-23 0 -23 23v12z" />
    <glyph glyph-name="O" unicode="O" horiz-adv-x="659" 
d="M245 1448q138 -11 138 -21q53 10 53 21q47 -15 85 -43q19 11 43 11q0 -29 85 -64q0 -10 11 -10q-14 -119 -21 -149q10 -21 10 -32q-10 0 -10 -11h10l-10 -21q0 -11 10 -11l-10 -21q0 -11 10 -11l-10 -21v-64l10 -21h-10l10 -22v-10h-21q21 -68 21 -75q-21 -39 -21 -85
l11 -96q0 -30 -54 -170v-11q0 -74 32 -74v-128l-10 -21q17 0 32 -21q-49 -181 -128 -181q-95 -87 -96 -96q-138 11 -138 21q-54 -10 -54 -21q-46 15 -85 43q-18 -11 -42 -11q0 29 -85 64q0 10 -11 10q13 130 21 149q-10 21 -10 32q10 0 10 11h-10l10 21q0 11 -10 11l10 21
q0 11 -10 11l10 21v64l-10 21h10l-10 22v10h21q-21 68 -21 75q21 39 21 85l-11 96q0 30 53 170v11q0 74 -31 74v128l10 21q-17 0 -32 21q49 181 128 181q96 87 96 96zM309 1237v-24l-11 -83h11l-43 -201q11 -23 11 -36h-11q0 -12 11 -12l-11 -83l11 -59h-11l11 -24
q0 -95 -32 -320v-23q0 -12 10 -12l-10 -24q0 -12 10 -12l-21 -59q0 -12 11 -12l-11 -59v-24l21 12h11q21 -4 21 -24q35 24 64 24v24l11 83h-11q11 75 43 189l-11 24v12q0 12 11 12q0 12 -11 12l11 83l-11 59h11l-11 24q0 95 32 320v23q0 12 -11 12l11 24q0 12 -11 12l22 59
q0 12 -11 12l11 59v24l-22 -12h-10q-22 0 -22 24q-34 -24 -63 -24z" />
    <glyph glyph-name="P" unicode="P" horiz-adv-x="614" 
d="M129 1436l43 -11q23 0 118 11l43 -11l42 11l129 -11l53 11q86 -131 86 -161v-21q0 -24 -11 -43q11 -21 11 -32h-11l11 -21q0 -11 -11 -11l11 -21q0 -11 -11 -11l11 -22l-11 -21h11q-11 -21 -11 -32q0 -16 22 -96q-22 -36 -22 -65v-10l11 -22q-11 0 -11 -10h11
q-15 -54 -75 -54l11 -21q-22 0 -22 -32l-21 10h-11l11 -53q0 -22 -21 -22q0 11 -11 11q-11 -54 -54 -54q0 11 -10 11q0 -25 -54 -53q-21 0 -21 21q49 43 75 43v11q-61 0 -129 -75q43 -16 43 -32q-118 -67 -118 -129l11 -43l-54 -225l-10 -21q21 -35 21 -53q-11 -21 -11 -33
q11 0 11 -10q-16 0 -32 -43q11 0 11 -11h-11q-21 11 -32 11q-68 -75 -129 -75q0 11 -10 32h10q-21 35 -21 64v22l11 64q0 11 -11 11l11 75v75q0 10 10 10l-10 22q0 10 10 10l-10 22v43l10 21h-10l10 21v11l-10 22h21l-11 21h22q0 21 -32 21v11q0 11 43 32q0 32 -33 32l11 54
h-11q11 32 22 32q0 11 -11 11q0 13 32 149h-10q21 150 32 150l-11 22q11 20 11 32h-11q15 60 32 85h-21v11l10 22h-10l10 21q0 11 -10 11l10 21q0 11 -10 11l10 21l-10 54h10q-10 20 -10 32q0 11 10 32l-10 64v22q53 0 53 21zM311 1265l-21 -32v-32q0 -11 10 -11l-21 -75
q11 -19 11 -43q-22 -35 -22 -53q11 0 11 -11h-11q0 -11 11 -11q-7 -75 -21 -75l10 -21q0 -11 -10 -11q0 -20 21 -86l-21 -74h10q139 129 139 160h-10q10 75 21 75l-11 21v22q0 11 11 11l-11 21q0 62 22 214l-43 11l-64 -11q0 11 -11 11zM707 826h32q0 -22 -21 -22h-11v22z
" />
    <glyph glyph-name="Q" unicode="Q" horiz-adv-x="659" 
d="M309 1237v-24l-11 -83h11l-43 -201q11 -23 11 -36h-11q0 -12 11 -12l-11 -83l11 -59h-11l11 -24q0 -95 -32 -320v-23q0 -12 10 -12l-10 -24q0 -12 10 -12l-21 -59q0 -12 11 -12l-11 -59v-24l21 12h11q21 -4 21 -24q35 24 64 24v24l11 83h-11q11 75 43 189l-11 24v12
q0 12 11 12q0 12 -11 12l11 83l-11 59h11l-11 24q0 95 32 320v23q0 12 -11 12l11 24q0 12 -11 12l22 59q0 12 -11 12l11 59v24l-22 -12h-10q-22 0 -22 24q-34 -24 -63 -24zM254 6q-31 -8 -31 -16q-46 15 -85 43q-18 -11 -42 -11q0 29 -85 64q0 10 -11 10q13 130 21 149
q-10 21 -10 32q10 0 10 11h-10l10 21q0 11 -10 11l10 21q0 11 -10 11l10 21v64l-10 21h10l-10 22v10h21q-21 68 -21 75q21 39 21 85l-11 96q0 30 53 170v11q0 74 -31 74v128l10 21q-17 0 -32 21q49 181 128 181q96 87 96 96q138 -11 138 -21q53 10 53 21q47 -15 85 -43
q19 11 43 11q0 -29 85 -64q0 -10 11 -10q-14 -119 -21 -149q10 -21 10 -32q-10 0 -10 -11h10l-10 -21q0 -11 10 -11l-10 -21q0 -11 10 -11l-10 -21v-64l10 -21h-10l10 -22v-10h-21q21 -68 21 -75q-21 -39 -21 -85l11 -96q0 -30 -54 -170v-11q0 -74 32 -74v-128l-10 -21
q17 0 32 -21q-49 -181 -128 -181q-29 -26 -49 -46q32 -134 93 -328q-32 0 -32 -18l21 8h11q0 -26 21 -71q-11 0 -11 -9h21v-9q0 -18 -21 -18q-53 54 -83 54l10 18v9l-21 -9h-21q-67 107 -125 125q0 10 10 10l-47 98q-8 35 -21 35l11 18q0 47 -24 53z" />
    <glyph glyph-name="R" unicode="R" horiz-adv-x="659" 
d="M137 1441l52 -10l105 10l42 -10l41 10l126 -10l52 10l94 -157q-10 -63 -21 -63l11 -21q0 -10 -11 -10l11 -21q0 -10 -11 -10l11 -21q0 -11 -11 -11l11 -21l-11 -21h11q-11 -20 -11 -31q0 -16 21 -94q-21 -34 -21 -63v-10l11 -21q-11 0 -11 -11h11q-15 -52 -73 -52l10 -21
q-21 0 -21 -31l-21 10h-10l10 -52q0 -21 -31 -21q18 -23 73 -240h-10l21 -95h-11q31 -76 42 -156q-11 -21 -11 -32q32 -165 100 -417q-32 0 -32 -21l21 10h11q0 -31 21 -83q-11 0 -11 -11h21v-10q0 -21 -21 -21q-53 63 -83 63l10 21v10l-21 -10h-21q-67 125 -125 146
q0 11 10 11l-47 114q-8 41 -21 41l11 21q0 63 -32 63q11 37 11 42l-42 52q0 11 10 11l-10 21v10l10 21h-10l10 21q0 10 -10 10q10 21 10 32q0 18 -20 62h10q-17 63 -31 63l10 21q-10 18 -10 42q18 10 41 10v11q-41 0 -41 21q-67 0 -94 -84l10 -42q0 -8 -42 -188
q0 -39 -21 -63q21 -34 21 -52q-10 -20 -10 -31q10 0 10 -11q-15 0 -31 -52q-20 10 -32 10q-66 -73 -125 -73q0 11 -11 31h11q-21 35 -21 63v21l10 63q0 10 -10 10l10 74v73q0 10 11 10l-11 21q0 11 11 11l-11 20v42l11 21h-11l11 21v11l-11 21h21l-10 20h21q0 21 -32 21v11
q0 10 42 31q0 32 -31 32l10 52h-10q10 31 21 31q0 11 -11 11q0 13 32 146h-11q21 146 32 146l-11 21q11 21 11 32h-11q15 59 32 83h-21l10 21q0 11 -10 11l10 21q0 10 -10 10l10 21q0 10 -10 10l21 42q-21 0 -21 21q0 11 10 11q-10 20 -10 31t10 31l-10 63v21q52 0 52 21z
M315 1274q-14 -14 -32 -105l11 -21l-11 -21q11 -18 11 -42q-21 -34 -21 -52q10 0 10 -10h-10q0 -11 10 -11q-12 -93 -21 -115l21 -73l-21 -73h11q136 117 136 157h-11l21 83q-10 0 -10 11h10l-10 21q0 10 10 10l-10 21v42q2 52 21 52l-11 21v42l11 52q-37 11 -42 11l-63 -11
q0 11 -10 11zM702 845h31q0 -21 -21 -21zM74 573v-10q11 0 32 -11v21h-32zM498 -200q20 -10 31 -10v-11h-31v21z" />
    <glyph glyph-name="S" unicode="S" horiz-adv-x="634" 
d="M234 439q2 -45 11 -45l-11 -22q0 -10 11 -10q-18 -40 -32 -171l42 -10l64 10q0 -10 11 -10l21 32v74q0 24 11 43l-11 21q11 58 11 96v10q0 11 -11 11l11 21q0 11 -11 11l21 53q0 11 -10 11l10 53v21l-21 -10h-11q-21 0 -21 21l-42 -21q0 10 -11 10v-10q-47 15 -85 42
q-19 -11 -43 -11q0 30 -85 64l-10 22l10 63l-21 -10h-11v10l43 75v32q0 74 -32 74v128l11 21q-18 0 -32 21q52 192 149 192l74 85q138 -11 138 -21q53 10 53 21q208 -85 224 -106l-11 -54v-143q-27 0 -196 -82l-33 25q16 98 16 115h-10q-19 -10 -43 -10l-10 21
q-75 -28 -75 -53l11 -21q-11 -19 -11 -43h11q-11 -53 -21 -53l10 -21q-19 -39 -32 -107q11 -20 11 -32h53q101 -24 139 -52q19 11 43 11q0 -29 85 -64q0 -10 10 -10q-3 -99 -11 -129q11 -21 11 -32q-11 0 -11 -11h11l-11 -21q0 -11 11 -11l-11 -21q0 -11 11 -11l-11 -21v-64
l11 -21h-11l11 -21v-11h-22q22 -68 22 -75q-27 -104 -107 -255q-80 0 -127 -42q-24 0 -43 10l-138 -21q0 21 -21 21l-75 -10q0 14 -85 138v42q0 24 11 43q-11 21 -11 32q11 0 11 11h-11l11 21q0 10 -11 10l11 22l-11 21q58 38 181 85q0 8 30 22z" />
    <glyph glyph-name="T" unicode="T" horiz-adv-x="634" 
d="M606 1464h11q0 -33 33 -33l-33 -145q-22 0 -22 -33h-54l-22 -10q0 21 -22 21q-55 0 -66 -117q0 -11 11 -11q-35 -240 -43 -262q10 -33 21 -33l-11 -22v-11l11 -22h-11q0 -11 11 -11q-8 -109 -21 -109q0 -11 10 -11q-39 -212 -54 -219l11 -21v-11q0 -11 -11 -11l11 -22
v-22q0 -25 -11 -44l11 -22q-11 -60 -11 -87h11l-11 -22l11 -22q-22 -3 -22 -22v-87l-55 -11v-11h44v-55q0 -22 -22 -22q0 11 -11 11q0 -11 -11 -11q0 25 -131 164q0 11 -44 66l55 394l-11 21l11 22q0 11 -11 11l11 55q0 12 -11 33q11 21 11 32h-11l11 22l-11 22
q33 93 33 120q-11 0 -11 11h11l-11 22q11 131 22 142l-11 22q22 86 22 107l-55 11h-44q-11 0 -11 -11q-36 4 -76 65h-11l11 22q-22 61 -22 90v22q3 22 22 22h98q11 0 11 -11q36 22 66 22h44q10 0 10 -11q44 22 77 22l22 -11q11 0 33 11q74 -11 120 -11h11l54 11
q0 -11 11 -11q4 22 22 22zM278 415v-11q54 28 55 43h-11q-44 -16 -44 -32zM202 393v-22h33v11q-12 0 -33 11zM311 -132h11q0 -12 11 -33h-22v33z" />
    <glyph glyph-name="U" unicode="U" horiz-adv-x="659" 
d="M478 1437l187 150l31 -21q-2 -13 -4 -21q10 -21 10 -32q-10 0 -10 -11h10l-10 -21q0 -11 10 -11l-10 -21q0 -11 10 -11l-10 -21l-23 -216l10 -21h-10l10 -22v-10h-21q21 -68 21 -75q-21 -39 -21 -85l11 -96q0 -30 -84 -370v-11q0 -74 32 -74v-128l-10 -21q17 0 32 -21
q-49 -181 -128 -181q-95 -87 -96 -96q-138 11 -138 21q-54 -10 -54 -21q-46 15 -85 43q-18 -11 -42 -11q0 29 -85 64q0 10 -11 10q13 130 38 318q-10 21 -10 32q10 0 10 11h-10l10 21q0 11 -10 11l10 21q0 11 -10 11l10 21v64l-10 21h10l-10 22v10h21q-21 68 -21 75
q21 39 21 85l2 127q0 30 53 170v11q0 74 -31 74v128l10 21q-17 0 -32 21q3 13 7 25l51 27l197 9l31 -34l-9 -68h11l-43 -201q11 -23 11 -36h-11q0 -12 11 -12l-11 -83l11 -59h-11l11 -24q-30 -295 -62 -520v-23q0 -12 10 -12l-10 -24q0 -12 10 -12l-21 -59q0 -12 11 -12
l-11 -59v-24l21 12h11q21 -4 21 -24q35 24 64 24v24l11 83h-11q11 75 43 189l-11 24v12q0 12 11 12q0 12 -11 12l11 83l19 259h11l-11 24q0 95 32 320v23q0 12 -11 12l11 24q0 12 -11 12l22 59q0 12 -11 12l10 53z" />
    <glyph glyph-name="V" unicode="V" horiz-adv-x="607" 
d="M431 1242l-10 21l92 358l21 10h40q82 -186 82 -194h-10l10 -21q-10 -18 -10 -41h10l21 10l10 -20q-14 0 -31 -61q-41 0 -41 -82q-87 -459 -87 -485h10q-23 -63 -62 -103q0 -10 11 -10q-24 -164 -51 -164q0 -51 20 -51q-31 -52 -31 -102q0 -10 11 -10q-52 -106 -52 -133
v-113q0 -61 -92 -61h-10q-235 0 -235 51v184q0 23 -10 41q10 18 10 41q-10 20 -10 31h10l-10 20q0 10 10 10l-10 21v133q0 10 -11 10l21 51q-10 18 -10 41q0 10 10 10l-10 21v112q0 10 -11 10l11 21l-11 20h11l-11 21q0 10 11 10q-8 13 -21 143q10 20 10 31q-20 33 -20 61
h10l-10 21v20h20q-8 41 -20 41l10 21q0 10 -10 10l10 20v31q0 10 -10 10q0 15 31 123h10q0 -11 153 -143q14 -137 31 -184h-10l20 -62v-215l21 -30q-20 -10 -31 -10v-62q0 -10 10 -10q0 -10 -10 -10l10 -51v-62q0 -10 -10 -10l10 -20v-21l-10 -51h41l51 153q-20 34 -20 52
q23 0 30 51q-10 0 -10 10q20 3 20 20q0 11 -10 11q10 12 10 61q78 376 88 444zM108 1360l-20 11q0 -11 -10 -11l-11 21h41v-21zM78 1391h-52v10h52v-10zM534 1641h-41v10h41v-10zM523 1662v20h41v-10z" />
    <glyph glyph-name="W" unicode="W" horiz-adv-x="1008" 
d="M108 1360l-20 11q0 -11 -10 -11l-11 21h41v-21zM426 1210q3 21 5 32l-10 20v1q1 17 31 122h10q0 -11 153 -143v-4q14 -134 31 -180h-10l20 -62v-215l21 -30q-20 -10 -31 -10v-62q0 -10 10 -10q0 -10 -10 -10l10 -51v-62q0 -10 -10 -10l10 -20v-21l-10 -51h41l51 153
q-20 34 -20 52q23 0 30 51q-10 0 -10 10q20 3 20 20q0 11 -10 11q10 12 10 61q78 376 88 444l-10 21l92 358l21 10h40q82 -186 82 -194h-10l10 -21q-10 -18 -10 -41h10l21 10l10 -20q-14 0 -31 -61q-41 0 -41 -82q-87 -459 -87 -485h10q-23 -63 -62 -103q0 -10 11 -10
q-24 -164 -51 -164q0 -51 20 -51q-31 -52 -31 -102q0 -10 11 -10q-52 -106 -52 -133v-113q0 -61 -92 -61h-10q-235 0 -235 51v184q0 23 -10 41q10 18 10 41q-10 20 -10 31h10l-10 20q0 10 10 10l-10 21v9q-27 -48 -27 -95q0 -10 11 -10q-52 -106 -52 -133v-113
q0 -61 -92 -61h-10q-235 0 -235 51v184q0 23 -10 41q10 18 10 41q-10 20 -10 31h10l-10 20q0 10 10 10l-10 21v133q0 10 -11 10l21 51q-10 18 -10 41q0 10 10 10l-10 21v112q0 10 -11 10l11 21l-11 20h11l-11 21q0 10 11 10q-8 13 -21 143q10 20 10 31q-20 33 -20 61h10
l-10 21v20h20q-8 41 -20 41l10 21q0 10 -10 10l10 20v31q0 10 -10 10q0 15 31 123h10q0 -11 153 -143q14 -137 31 -184h-10l20 -62v-215l21 -30q-20 -10 -31 -10v-62q0 -10 10 -10q0 -10 -10 -10l10 -51v-62q0 -10 -10 -10l10 -20v-21l-10 -51h41l51 153q-20 34 -20 52
q23 0 30 51q-10 0 -10 10q20 3 20 20q0 11 -10 11q10 12 10 61q62 298 81 403h-3zM452 475q-8 -15 -16 -15q0 -46 16 -50v65zM78 1391h-52v10h52v-10z" />
    <glyph glyph-name="X" unicode="X" horiz-adv-x="664" 
d="M139 1437h106q0 -97 43 -97l-11 -21l76 -172h10q0 49 120 269q0 21 65 21q11 0 32 -11l64 11q32 -11 32 -21l22 10h32v-10q-28 0 -54 -76h11q-59 -158 -107 -204q-4 -72 -108 -269q10 0 10 -10q-10 0 -10 -11q10 0 10 -11h-10q21 -35 21 -54q-11 0 -11 -10q11 0 11 -11
h-11l11 -22l-11 -21q68 -108 86 -108l-10 -21h10l-10 -22v-21q42 0 64 -140h-11l11 -21q0 -11 -11 -11q52 -151 86 -183v-32h-11l11 -21v-22l-21 11q-79 -140 -86 -140q-26 0 -32 32l10 11q-79 0 -106 183q-17 0 -54 97q11 0 11 10q-37 4 -76 151q11 0 11 11h-21v10h21
q0 22 -43 22v11l22 32v10h-11q-158 -426 -215 -451q11 0 11 -11q-19 0 -65 -129l-290 -215q0 11 -11 11q0 -11 -11 -11v11l11 22q-11 0 -11 10q11 0 43 43q-10 21 -10 33q17 0 43 75h-11q162 296 215 505q183 338 183 398v10q0 59 -43 129q10 0 10 11q-25 0 -32 75
q11 0 11 11q-31 2 -97 183q-19 0 -54 107q33 54 140 54zM-269 -250h10v-22h-32q4 22 22 22zM-302 -326v-10q0 -22 -21 -22v11q3 21 21 21z" />
    <glyph glyph-name="Y" unicode="Y" horiz-adv-x="664" 
d="M308 415v-11q54 28 55 43h-11q-44 -16 -44 -32zM232 393v-22h33v11q-12 0 -33 11zM206 839q-2 10 -2 18v10q0 59 -43 129q10 0 10 11q-25 0 -32 75q11 0 11 11q-31 2 -97 183q-19 0 -54 107q33 54 140 54h106q0 -97 43 -97l-11 -21l76 -272h10q0 49 120 369q0 21 65 21
q11 0 32 -11l64 11q32 -11 32 -21l22 10h32v-10q-28 0 -54 -76h11q-59 -158 -107 -204q-3 -53 -135 -341l5 -9h-9l-2 -4q2 -7 11 -7q-8 -109 -21 -109q0 -11 10 -11q-39 -212 -54 -219l11 -21v-11q0 -11 -11 -11l11 -22v-22q0 -25 -11 -44l11 -22q-17 -246 -17 -273h11
l-11 -22l11 -22q-22 -3 -22 -22v-87l-55 -11v-11h44v-55q0 -22 -22 -22q0 11 -11 11q0 -11 -11 -11q0 25 -125 350q0 11 -44 66l55 394l-11 21l11 22q0 11 -11 11l11 55q0 12 -11 33q11 21 11 32h-11l11 22l-11 22q11 30 18 53zM335 -318h11q0 -12 11 -33h-22v33z" />
    <glyph glyph-name="Z" unicode="Z" horiz-adv-x="524" 
d="M511 1452q12 0 34 -11l66 11q34 -11 35 -22l22 11h33l1 -11q-29 0 -50 -78h11q-48 -163 -94 -211q4 -57 -109 -311q3 -40 -130 -322l-80 -267q6 0 35 -22h23q80 0 97 33l23 -11l44 11q45 -11 78 -11l1 -11q2 -25 -27 -78q-30 23 -35 23q-53 -92 -145 -134l-23 11
q-65 -22 -64 -33l-23 11q-165 -37 -185 -55l2 -22h-11l-4 44q11 0 11 11h-12q0 -12 -104 -89q-1 11 -12 11q1 -11 -10 -11l-1 11l10 23q-12 0 -12 11q26 33 64 33q-2 22 -35 22l-1 11l37 89h-11q137 279 198 589q92 132 168 411q41 49 37 100q-11 0 -12 11q11 0 10 11
l-23 11l-54 -22q-45 11 -78 11l-22 -11q-129 93 -134 155q13 45 30 45h22q37 0 56 -11l66 11q33 0 34 -11l55 11h89l2 -22q56 44 107 44zM125 430l1 -22q23 0 24 -22q22 0 21 22zM185 363l1 -11h45l-2 23q-19 -12 -44 -12zM293 -25h12q1 -12 13 -34h-22zM-101 -92h11l2 -22
h-34q2 22 21 22zM-128 -170v-11q2 -22 -20 -22l-1 11q2 22 21 22z" />
    <glyph glyph-name="bracketleft" unicode="[" horiz-adv-x="467" 
d="M396 -72q-13 -8 -23 -17q-24 0 -43 10l-139 -21q0 21 -21 21l-75 -10q0 14 -85 138v43q0 24 11 43q-11 21 -11 32q11 0 11 11h-11l11 21q0 11 -11 11l11 21q0 11 -11 11l11 21v64l-11 21h11l-11 22v10h21q-21 68 -21 75q21 39 31 85l-10 197q0 30 21 484l11 21
q-18 0 -32 21q53 193 149 193l75 85q129 -11 129 -21q53 10 53 21q46 -19 83 -35l-100 -188q-12 -3 -26 -3l-11 21q-95 -58 -95 -83l11 -22q-11 -18 -11 -42h11q-11 -54 -21 -54l10 -21q-19 -39 -32 -107q11 -20 11 -32h-11q0 -110 11 -110l-11 -75l11 -53h-11l11 -22
q0 -186 -22 -388v-21q0 -11 11 -11l-11 -21q0 -11 11 -11q-19 -39 -33 -171l43 -11l64 11q0 -11 11 -11l1 1z" />
    <glyph glyph-name="backslash" unicode="\" horiz-adv-x="664" 
d="M139 1437h106q0 -97 43 -97l-11 -21l76 -172h10q0 49 109 -280q10 0 10 -10q-10 0 -10 -11q10 0 10 -11h-10q21 -35 21 -54q-11 0 -11 -10q11 0 11 -11h-11l11 -22l-11 -21q68 -108 86 -108l-10 -21h10l-10 -22v-21q42 0 64 -140h-11l11 -21q0 -11 -11 -11
q52 -151 86 -183v-32h-11l11 -21v-22l-21 11q-79 -140 -86 -140q-26 0 -32 32l10 11q-79 0 -106 183q-17 0 -54 97q11 0 11 10q-37 4 -76 151q11 0 11 11h-21v10h21q0 22 -43 22v11l22 32v10h-11q-118 231 -118 291v10q0 59 -43 129q10 0 10 11q-25 0 -32 75q11 0 11 11
q-31 2 -97 183q-19 0 -54 107q33 54 140 54z" />
    <glyph glyph-name="bracketright" unicode="]" horiz-adv-x="467" 
d="M24 1513q13 8 23 17q24 0 43 -10l139 21q0 -21 21 -21l75 10q0 -14 85 -138v-43q0 -24 -11 -43q11 -21 11 -32q-11 0 -11 -11h11l-11 -21q0 -11 11 -11l-11 -21q0 -11 11 -11l-11 -21v-64l11 -21h-11l11 -22v-10h-21q21 -68 21 -75q-21 -39 -31 -85l10 -197
q0 -30 -21 -484l-11 -21q18 0 32 -21q-53 -193 -149 -193l-75 -85q-129 11 -129 21q-53 -10 -53 -21q-46 19 -83 35l100 188q12 3 26 3l11 -21q95 58 95 83l-11 22q11 18 11 42h-11q11 54 21 54l-10 21q19 39 32 107q-11 20 -11 32h11q0 110 -11 110l11 75l-11 53h11l-11 22
q0 186 22 388v21q0 11 -11 11l11 21q0 11 -11 11q19 39 33 171l-43 11l-64 -11q0 11 -11 11l-1 -1z" />
    <glyph glyph-name="asciicircum" unicode="^" 
d="M250 1467h11q0 -33 33 -33q-12 -70 -27 -77l11 -21v-11l-20 -109l11 -22q-22 -3 -22 -22v-87l-55 -11v-11h44v-55q0 -22 -22 -22q0 11 -11 11q0 -11 -11 -11q0 25 -131 164q0 11 -44 66l22 206q3 22 22 22h98q11 0 11 -11q36 22 47 23q0 -11 11 -11q4 22 22 22zM214 910
h11q0 -12 11 -33h-22v33z" />
    <glyph glyph-name="underscore" unicode="_" horiz-adv-x="512" 
d="M510 93l-109 -104h-6q-31 2 -42 -11l-32 9h-181l-18 2l-30 9q-16 -8 -132 -8q10 21 -43 25l3 7q5 12 42 12q3 7 -15 8q5 7 52 28q-18 1 -15 8l30 63q5 12 42 12l337 -11q75 -35 93 -36q12 -7 24 -13z" />
    <glyph glyph-name="grave" unicode="`" 
d="M250 1467h11q0 -33 33 -33q-12 -70 -27 -77l11 -21v-11l-20 -109l11 -22q-22 -3 -22 -22v-87l-55 -11v-11h44v-55q0 -22 -22 -22q0 11 -11 11q0 -11 -11 -11q0 25 -131 164q0 11 -44 66l22 206q3 22 22 22h98q11 0 11 -11q36 22 47 23q0 -11 11 -11q4 22 22 22zM214 910
h11q0 -12 11 -33h-22v33z" />
    <glyph glyph-name="a" unicode="a" horiz-adv-x="586" 
d="M304 1436q235 0 235 -51v-184q0 -23 10 -41q-10 -18 -10 -41q10 -20 10 -31h-10l10 -20q0 -10 -10 -10l10 -21v-133q0 -10 11 -10l-21 -51q10 -18 10 -41q0 -10 -10 -10l10 -21v-112q0 -10 11 -10l-11 -21l11 -20h-11l11 -21q0 -10 -11 -10q8 -13 21 -143
q-10 -20 -10 -31q20 -33 20 -61h-10l10 -21v-20h-20q7 -41 20 -41l-10 -21q0 -10 10 -10l-10 -20v-31q0 -10 10 -10q0 -15 -31 -123h-10q0 11 -153 143q-14 137 -31 184h10l-20 62q-171 0 -184 -92l10 -21l-92 -358l-21 -10h-41q-81 186 -81 194h10l-10 21q10 18 10 41h-10
l-21 -10l-10 20q14 0 31 61q41 0 41 82q81 301 81 327h-10q23 63 62 103q0 10 -11 10q24 164 51 164q0 51 -20 51q31 52 31 102q0 10 -11 10q52 106 52 133v113q0 61 92 61h10zM314 986l-51 -153q20 -34 20 -52q-23 0 -30 -51q10 0 10 -10q-21 -3 -21 -20q0 -11 11 -11
q-11 -12 -11 -61l21 -10l82 20v11l-21 30q20 10 31 10v62q0 10 -10 10q0 10 10 10l-10 51v62q0 10 10 10l-10 20v21l10 51h-41zM478 66l20 -11q0 11 10 11l11 -21h-41v21zM508 35h52v-10h-52v10zM58 -57h41v-10h-41v10zM69 -78v-20h-41v10z" />
    <glyph glyph-name="b" unicode="b" horiz-adv-x="642" 
d="M141 1436l43 -11q23 0 119 11l43 -11q6 0 44 11l130 -11l54 11q86 -133 86 -162v-22q0 -24 -11 -43q11 -21 11 -33h-11l11 -21q0 -11 -11 -11l11 -22q0 -11 -11 -11l11 -21l-11 -22h11q-11 -21 -11 -32q0 -17 22 -98q-22 -35 -22 -65v-11l11 -21q-11 0 -11 -11h11
q-55 -54 -116 -54l11 -22q-21 -3 -21 -22q32 0 86 -75v-33l-21 -292l-11 -22q17 0 32 -21q-54 -195 -111 -195l-76 -87q-141 11 -141 22l-65 -22q0 11 -11 11q0 -32 -32 -32l11 -22h-22l-21 11q-65 -76 -130 -76q0 12 -11 32h11q-22 36 -22 65v44q0 24 11 43q0 11 -11 11
l11 76v75q0 11 11 11l-11 22q0 11 11 11l-11 21v44l11 21h-11l11 22v11q0 11 -11 11q11 14 11 54h-11q0 18 21 65q-10 21 -10 32q10 21 10 33h-10l43 194h-11q22 152 33 152l-11 22q11 21 11 32h-11q15 61 32 87h-21v10l10 22h-10l10 22q0 11 -10 11l10 21q0 11 -10 11
l10 22l-10 54h10q-10 21 -10 32q0 12 10 33l-10 65v21q54 0 54 22zM325 1263l-22 -33v-32q0 -11 11 -11l-22 -76q11 -19 11 -43q-22 -35 -22 -54q11 0 11 -11h-11q0 -11 11 -11q-7 -76 -21 -76l10 -21q0 -11 -10 -11q0 -20 21 -87l-21 -75h10q141 131 141 162h-11
q11 76 22 76l-11 21v22q0 11 11 11l-11 22q0 62 22 216l-44 11l-64 -11q0 11 -11 11zM725 819h33q-40 -22 -62 -22h-11zM312 570q51 -19 51 -38q-77 -38 -127 -113q13 -67 13 -76l-38 -139h13q22 13 50 13l13 -26q88 33 88 64l-12 25q12 22 12 50h-12q12 63 25 63l-13 26
q0 24 26 88h-13l13 25v26l-26 38q19 0 38 50h-12q-89 -64 -89 -76zM260 -69h32q-11 -20 -11 -32h-32q11 21 11 32z" />
    <glyph glyph-name="c" unicode="c" horiz-adv-x="602" 
d="M255 1441q129 -11 129 -21q53 10 53 21q208 -85 224 -107l-11 -53v-195q-30 0 -234 -165v10q21 244 21 264h-11q-18 -10 -42 -10l-11 21q-85 -28 -85 -53l11 -22q-11 -18 -11 -42h11q-11 -54 -21 -54l10 -21q-19 -39 -32 -107q11 -20 11 -32h-11q0 -10 11 -10l-11 -75
l11 -53h-11l11 -22q0 -86 -22 -288v-21q0 -11 11 -11l-11 -21q0 -11 11 -11q-19 -39 -33 -171l43 -11l64 11q0 -11 11 -11l21 32v75q0 24 11 43q-11 19 -11 43q22 34 22 53q-11 0 -11 11h11q47 0 192 -150l-11 -21q0 -11 11 -11q-22 -118 -75 -203q-81 0 -128 -42
q-24 0 -43 10l-139 -21q0 21 -21 21l-75 -10q0 14 -85 138v43q0 24 11 43q-11 21 -11 32q11 0 11 11h-11l11 21q0 11 -11 11l11 21q0 11 -11 11l11 21v64l-11 21h11l-11 22v10h21q-21 68 -21 75q21 39 31 85l-10 97q0 30 21 384l11 21q-18 0 -32 21q53 193 149 193z" />
    <glyph glyph-name="d" unicode="d" horiz-adv-x="642" 
d="M130 1447q96 0 182 -32l138 21q4 -21 22 -21l74 11q0 -14 86 -139v-43q0 -24 -11 -42q11 -21 11 -33q-11 0 -11 -10h11l-11 -22q0 -10 11 -10l-11 -22q0 -10 11 -10l-11 -22v-64l11 -21h-11l11 -21v-11h-22l22 -75q-22 -39 -22 -85q0 -48 11 -64q-11 -118 -21 -427
q-11 0 -11 -11q17 0 32 -21q-53 -192 -149 -192l-75 -86q-139 11 -139 22l-64 -22q0 11 -11 11q-10 -32 -21 -32q-21 11 -32 11q-68 -75 -128 -75q0 11 -11 32h11q-21 35 -21 64v21l10 64q0 11 -10 11l10 75v75q0 10 11 10l-11 22q0 10 11 10l-11 22v42l11 22h-11l11 21v11
l-11 21h22l-11 21h21q0 22 -32 22v10q0 11 43 32q0 32 -32 32l11 54h-11q11 32 21 32q0 10 -10 10q0 14 32 150h-11q21 149 32 149l-11 22q11 20 11 32h-11q15 60 32 85h-21v11l11 21h-11l11 21q0 11 -11 11l11 21q0 11 -11 11q11 21 11 32q-1 54 -107 182v10q27 0 117 43
h43zM310 1226l-21 -32v-75q0 -24 -11 -43q11 -18 11 -42q-22 -35 -22 -54q11 0 11 -10h-11q0 -11 11 -11q-7 -75 -21 -75l10 -21q0 -11 -10 -11q0 -19 21 -85q-11 -32 -21 -32l10 -21q0 -11 -10 -11l10 -21v-11h-21v-86h21v-53h-21v-75q0 -10 11 -10q-22 -44 -22 -64l11 -43
l-32 -128h10q19 11 43 11l11 -22q75 28 75 54l-11 21q11 19 11 43h-11q11 53 21 53l-10 21q0 21 21 75h-11q11 64 22 64q0 11 -11 11l11 74l-11 54h11l-11 21q0 86 32 288v22q0 10 -11 10l11 22q0 10 -11 10q18 40 32 171q-37 11 -42 11l-64 -11q0 11 -11 11z" />
    <glyph glyph-name="e" unicode="e" horiz-adv-x="490" 
d="M103 1441q96 -14 120 -33v22h88q25 0 44 -11q19 11 44 11q36 0 55 -11l65 11h22q25 0 33 -55q-9 -42 -110 -142l-54 11q-9 0 -96 -11q0 11 -11 11q0 -29 -33 -77q9 -44 22 -44l-11 -22l11 -22h-11l11 -22v-11h-22q0 -11 11 -11q-22 -81 -22 -109l22 -77q33 0 118 22
l22 -11l22 11q21 -11 32 -11v-22l-11 -55q11 0 11 -11q-35 -66 -153 -110q0 11 -41 11q-19 -44 -44 -44v-43l-11 -55h11l-22 -66h22q-11 -33 -22 -33l11 -22q0 -21 -22 -110q22 -3 22 -21v-11q-33 -51 -33 -88l22 -11h22q110 0 129 33l22 -11l44 11q43 -11 76 -11v-11
q0 -26 -33 -77l-32 22q-59 -90 -154 -132l-22 11q-66 -22 -66 -33l-22 11q-58 -22 -175 -43q0 11 -44 43l22 55l-11 22q11 21 11 33q0 11 -11 11l11 55q0 25 -11 44q44 164 44 186l-22 44q22 104 44 143q-11 19 -11 43h11q0 11 -11 11q14 134 22 154h-11l11 22
q-11 21 -11 33h11l-11 22q0 75 33 164q-11 22 -11 33l11 22q0 11 -11 11l11 55v33l-11 22q11 0 11 11q-22 0 -22 22q0 11 11 11l-22 43h11q-18 36 -33 99l66 44q22 0 22 11zM-18 -50h11v-44h-11v44zM234 -72h11q0 -12 11 -33h-22v33z" />
    <glyph glyph-name="f" unicode="f" horiz-adv-x="490" 
d="M103 1441q96 -14 120 -33v22h88q25 0 44 -11q19 11 44 11q36 0 55 -11l65 11h22q25 0 33 -55q-9 -42 -110 -142l-54 11q-9 0 -96 -11q0 11 -11 11q0 -29 -33 -77q9 -44 22 -44l-11 -22l11 -22h-11l11 -22v-11h-22q0 -11 11 -11q-22 -81 -22 -109l22 -77q33 0 118 22
l22 -11l22 11q21 -11 32 -11v-22l-11 -55q11 0 11 -11q-35 -66 -153 -110q0 11 -41 11q-19 -44 -44 -44v-43l-11 -55h11l-22 -66h22q-11 -33 -22 -33l11 -22q0 -21 -22 -110q22 -3 22 -21v-11q-33 -51 -33 -88l22 -11h22q-92 -469 -92 -480l-22 11q-58 -22 -119 239
q0 11 -44 43l22 55l-11 22q11 21 11 33q0 11 -11 11l11 55q0 25 -11 44q44 164 44 186l-22 44q22 104 44 143q-11 19 -11 43h11q0 11 -11 11q14 134 22 154h-11l11 22q-11 21 -11 33h11l-11 22q0 75 33 164q-11 22 -11 33l11 22q0 11 -11 11l11 55v33l-11 22q11 0 11 11
q-22 0 -22 22q0 11 11 11l-22 43h11q-18 36 -33 99l66 44q22 0 22 11zM-18 -50h11v-44h-11v44zM178 -354h11q0 -12 -11 -33v33z" />
    <glyph glyph-name="g" unicode="g" horiz-adv-x="642" 
d="M487 0q-87 3 -165 32l-140 -21q0 21 -21 21l-75 -11q0 15 -86 140v43q0 24 11 43q-11 20 -11 32q11 0 11 10h-11l11 22q0 11 -11 11l11 21q0 11 -11 11l11 21v65l-11 21h11l-11 21v11h21q-21 68 -21 75q21 39 21 86l-10 96q0 31 53 172v11q0 75 -32 75v128l11 22
q-18 0 -32 21q53 193 150 193l75 86q139 -11 139 -21q54 10 54 21q209 -86 225 -107l-11 -54l11 -137q-27 0 -197 -115l-36 34q8 115 8 132h-11q-19 -10 -43 -10l-10 21q-76 -28 -76 -53l11 -22q-11 -19 -11 -43h11q-11 -53 -21 -53l10 -22q-19 -39 -32 -107q11 -21 11 -32
h-11q0 -11 11 -11l-11 -75l11 -54h-11l11 -21q0 -86 -32 -289v-22q0 -11 11 -11l-11 -21q0 -11 11 -11q-19 -39 -33 -171l43 -11l65 11q0 -11 10 -11q22 27 22 32v75q0 24 11 43q-11 19 -11 43q21 35 21 54q-10 0 -10 10h10q0 11 -10 11q7 75 21 75l-11 21q0 11 11 11
q0 20 -21 86q10 32 21 32l-4 7q-76 76 -79 129q10 45 24 45h18q29 0 44 -11l53 11q27 0 27 -11l44 11h71l1 -13q18 11 37 25h11q4 2 9 4l-15 -35q2 -1 6 -1q-10 -29 -20 -32l-2 -4q2 -7 11 -7q0 -13 -32 -150h10q-21 -150 -32 -150l11 -22q-11 -20 -11 -32h11
q-15 -60 -32 -85h21v-11l-11 -22h11l-11 -21q0 -11 11 -11l-11 -21q0 -11 11 -11q-11 -21 -11 -32q0 -22 19 -58z" />
    <glyph glyph-name="h" unicode="h" horiz-adv-x="670" 
d="M512 1501h107l21 -11v11q65 0 65 -129t-22 -195l11 -21l-21 -65v-32q-22 0 -22 -33l11 -21q-11 -19 -11 -43l22 10q0 -21 10 -21q0 -13 -32 -54l11 -22l-22 -43q0 -11 11 -11q-14 -122 -32 -172q11 -21 11 -33l-22 -10l11 -22v-21q0 -25 -11 -44q0 -10 11 -10
q-33 -199 -33 -270q-21 0 -21 -11t11 -11q-45 -441 -78 -478l11 -65v-11h-21l-144 322l11 22q17 202 17 210q11 21 11 33q-11 0 -11 11q22 0 22 21v11q0 11 -11 11q22 49 22 108l-11 21q21 55 21 86q-21 0 -21 22q21 0 21 22v10q0 30 -21 65l-22 -11l-21 11q-67 -7 -67 -22
l-34 22q-21 -22 -53 -108q15 0 32 -32h-11l11 -22q0 -86 -43 -86v-22l32 22v-11l-43 -162q11 -21 11 -32h-11q11 -21 11 -32l-11 -22l11 -21q-29 -162 -54 -162q-117 72 -117 118q-33 0 -33 -32h-21q0 11 11 32q0 15 -22 119q32 87 32 237q-10 21 -10 33l21 10q0 11 -11 11
q11 108 22 108l-11 22l11 43l-11 21q11 19 11 44h-11q9 43 22 43l-11 21q0 33 22 87l-11 21q21 55 21 86h-10q10 0 21 173q-11 0 -11 11q22 0 22 21l-11 22q11 21 11 32q-11 0 -11 11h11q-32 83 -86 140v11q25 0 107 43h22q193 -7 193 -54v-21q0 -24 -10 -43l10 -22l-10 -22
q0 -10 10 -10q-14 -144 -32 -205q0 -11 11 -11q-7 -86 -22 -86q0 -11 11 -11l-11 -54v-11q11 -73 33 -75q24 16 99 32q0 -22 11 -22q24 0 65 98h-22v10q0 11 11 11l-11 22l11 21l-11 54q22 81 22 97h-11q11 65 21 65l-10 22v10q0 11 10 11l-10 22v97q0 27 43 32zM69 433v-11
q35 0 52 33h-11q-41 -4 -41 -22zM377 -112q21 -3 21 -22v-10q-21 0 -21 21v11zM26 -31q15 0 32 -32h-11q-21 0 -21 22v10z" />
    <glyph glyph-name="i" unicode="i" 
d="M286 1464h11q0 -33 33 -33q-18 -197 -29 -284q0 -11 11 -11q-35 -240 -43 -262q10 -33 21 -33l-11 -22v-11l11 -22h-11q0 -11 11 -11q-8 -109 -21 -109q0 -11 10 -11q-39 -212 -54 -219l11 -21v-11q0 -11 -11 -11l11 -22v-22q0 -25 -11 -44l11 -22q-11 -60 -11 -87h11
l-11 -22l11 -22q-22 -3 -22 -22v-87l-55 -11v-11h44v-55q0 -22 -22 -22q0 11 -11 11q0 -11 -11 -11q0 25 -131 164q0 11 -44 66l55 394l-11 21l11 22q0 11 -11 11l11 55q0 12 -11 33q11 21 11 32h-11l11 22l-11 22q33 93 33 120q-11 0 -11 11h11l-11 22q11 131 22 142
l-11 22q22 56 22 77l-8 239q3 22 22 22h98q11 0 11 -11q36 22 47 23q0 -11 11 -11q4 22 22 22zM148 415v-11q54 28 55 43h-11q-44 -16 -44 -32zM72 393v-22h33v11q-12 0 -33 11zM181 -132h11q0 -12 11 -33h-22v33z" />
    <glyph glyph-name="j" unicode="j" horiz-adv-x="642" 
d="M29 361q48 23 197 143l17 -29q-19 -210 -19 -229h11q19 10 43 10l10 -21q85 28 85 53l-11 22q11 18 11 42h-11q11 54 22 54l-11 21q19 39 32 107q-11 20 -11 32h11q0 10 -11 10l11 75l-11 53h11l-11 22q0 86 22 288v21q0 11 -10 11l10 21q0 11 -10 11q18 39 32 171
l37 371l71 10q0 -14 105 -338v-43q0 -24 -11 -43q11 -21 11 -32q-11 0 -11 -11h11l-11 -21q0 -11 11 -11l-11 -21q0 -11 11 -11l-11 -21v-64l11 -21h-11l11 -22v-10h-21q21 -68 21 -75q-21 -39 -31 -85l10 -97q0 -30 -21 -384l-11 -21q18 0 32 -21q-53 -193 -149 -193
l-75 -85q-128 11 -128 21q-54 -10 -54 -21q-208 85 -224 107l11 53v166z" />
    <glyph glyph-name="k" unicode="k" horiz-adv-x="664" 
d="M239 523v-11q15 0 32 33h-11q-21 -4 -21 -22zM256 994q36 63 97 153h10q0 49 120 269q0 21 65 21q11 0 32 -11l64 11q32 -11 32 -21l22 10h32v-10q-28 0 -54 -76h11q-59 -158 -107 -204q-4 -72 -108 -269q10 0 10 -10q-10 0 -10 -11q10 0 10 -11h-10q21 -35 21 -54
q-11 0 -11 -10q11 0 11 -11h-11l11 -22l-11 -21q68 -108 86 -108l-10 -21h10l-10 -22v-21q42 0 64 -140h-11l11 -21q0 -11 -11 -11q272 -630 306 -662v-32h-11l11 -21v-22l-21 11q-299 339 -306 339q-26 0 -32 32l10 11q-79 0 -106 183q-17 0 -54 97q11 0 11 10
q-37 4 -76 151q11 0 11 11h-21v10h21q0 22 -43 22v11l22 32v10h-11q-64 125 -93 200l-14 -149q-16 -29 -38 -87q15 0 32 -32h-11l11 -22q0 -86 -43 -86v-22l32 22v-11l-43 -162q11 -21 11 -32h-11q11 -21 11 -32l-11 -22l11 -21q-29 -162 -54 -162q-97 72 -97 118
q-33 0 -33 -32h-21q0 11 11 32q0 15 -22 119q32 87 32 237q-10 21 -10 33l21 10q0 11 -11 11q11 108 22 108l-11 22l11 43l-11 21q11 19 11 44h-11q9 43 22 43l-11 21q0 33 22 87l-11 21q21 55 21 86h-10q10 0 21 173q-11 0 -11 11q22 0 22 21l-11 22q11 21 11 32
q-11 0 -11 11h11q-32 83 -86 140v11q25 0 107 43h22q183 -7 183 -54v-21q0 -24 -10 -43l10 -22l-10 -22q0 -10 10 -10q-14 -144 -32 -205q0 -11 11 -11q-3 -34 -7 -54zM196 59q15 0 32 -32h-11q-21 0 -21 22v10zM-75 34q21 -3 21 -22v-10q-21 0 -21 21v11z" />
    <glyph glyph-name="l" unicode="l" horiz-adv-x="490" 
d="M103 1441q116 116 140 97v22h88l-17 -327q0 11 -11 11q0 -29 -33 -77q9 -44 22 -44l-11 -22l11 -22h-11l11 -22v-11h-22q0 -11 11 -11q-22 -81 -22 -109q3 -297 -22 -297v-43l-11 -55h11l-22 -66h22q-11 -33 -22 -33l11 -22q0 -21 -22 -110q22 -3 22 -21v-11
q-33 -51 -33 -88l22 -11h22q110 0 129 33l22 -11l44 11q43 -11 76 -11v-11q0 -26 -33 -77l-32 22q-59 -90 -154 -132l-22 11q-66 -22 -66 -33l-22 11q-58 -22 -175 -43q0 11 -44 43l22 55l-11 22q11 21 11 33q0 11 -11 11l11 55q0 25 -11 44q44 164 44 186l-22 44
q22 104 44 143q-11 19 -11 43h11q0 11 -11 11q14 134 22 154h-11l11 22q-11 21 -11 33h11l-11 22q0 75 33 164q-11 22 -11 33l11 22q0 11 -11 11l11 55v33l-11 22q11 0 11 11q-22 0 -22 22q0 11 11 11l-22 43h11q-18 36 -33 99l66 44q22 0 22 11zM-18 -50h11v-44h-11v44z
M234 -72h11q0 -12 11 -33h-22v33z" />
    <glyph glyph-name="m" unicode="m" horiz-adv-x="906" 
d="M695 1441q42 -16 42 -32l54 11h53l21 -11v11q64 0 64 -128t-21 -192l11 -21l-22 -64v-32q-21 0 -21 -32l11 -22q-11 -18 -11 -42l21 10q0 -21 11 -21q0 -13 -32 -53l11 -22l-22 -42q0 -11 11 -11q-14 -120 -32 -170q11 -21 11 -32l-22 -11l11 -21v-22q0 -24 -11 -42
q0 -11 11 -11q-32 -197 -32 -266q-21 0 -21 -11t10 -11q-27 -350 -59 -387l10 -64v-10h-21l-111 376l11 21q0 8 -11 64q11 21 11 32q-11 0 -11 11q22 0 22 21v11q0 10 -11 10q21 49 21 107l-10 21q21 55 21 86q-21 0 -21 21q21 0 53 203v74l-11 75q22 0 22 21q-12 0 -32 11
q-47 -181 -64 -181l10 -22l-42 -106q-32 0 -32 -22q21 -34 21 -53h-11l-21 11l-11 -22q11 0 11 -10q-11 0 -11 -11q11 0 11 -11q-21 -3 -21 -21q0 -11 10 -11q-30 -74 -53 -213q-21 0 -21 -32h-22l-53 181q11 0 11 11q-11 0 -11 11h21q0 21 -53 21q0 32 32 32v11
q-43 0 -75 213q11 0 11 11q-21 0 -21 21h10q-14 64 -32 64q0 10 11 10l-32 128h-11q0 -210 -42 -330q15 0 32 -32h-11l11 -21q0 -86 -43 -86v-21l32 21v-10l-42 -160q10 -21 10 -32h-10q10 -21 10 -32l-10 -21l10 -22q-28 -160 -53 -160q-96 72 -96 118q-32 0 -32 -32h-21
q0 11 10 32q0 14 -21 117q32 86 32 234q-11 21 -11 32l22 11q0 11 -11 11q11 106 21 106l-10 22l10 42l-10 22q10 18 10 42h-10q8 43 21 43l-11 21q0 32 22 85l-11 22q21 54 21 85h-10q10 0 21 171q-11 0 -11 10q22 0 22 22l-11 21q11 20 11 32q-11 0 -11 10h11
q-32 82 -86 139v11q25 0 107 42h21q192 0 192 -74q29 0 43 -150q18 0 53 -149q-11 0 -11 -10q22 -4 22 -22v-42l-11 -22q32 0 32 -74h11q22 0 74 128h-10q14 53 42 53l-10 21q0 36 32 75h-11q60 149 85 181l-10 21q10 0 10 11h-10q21 64 53 64zM87 439v-11q16 0 32 32h-10
q-22 -3 -22 -21zM45 -19q15 0 32 -32h-11q-21 0 -21 21v11zM612 -40q22 -3 22 -21v-11q-22 0 -22 21v11z" />
    <glyph glyph-name="n" unicode="n" horiz-adv-x="777" 
d="M579 1492h93l23 -12v12q70 0 70 -140q0 -139 -23 -209l12 -24l-24 -70v-35q-23 0 -23 -35l12 -23q-12 -20 -12 -46l23 11q0 -23 12 -23q0 -14 -35 -58l12 -24l-24 -46q0 -12 12 -12q-15 -132 -35 -186q12 -23 12 -35l-23 -12l11 -23v-23q0 -27 -11 -47q0 -12 11 -12
q-35 -215 -35 -291q-23 0 -23 -11q0 -12 12 -12q-12 -100 -47 -140l12 -70v-11h-24l-139 128l11 23q-11 61 -11 70q11 22 11 35q-11 0 -11 11q23 0 23 24v11l-12 24q12 0 12 11h-12l12 24v11h-35v12q23 29 23 35q-39 35 -58 81h-12v12l12 23q-17 0 -47 128h-11l11 24
l-81 209q12 0 12 12l-24 12v-140q-27 -165 -46 -221q16 0 35 -35h-12l12 -24q0 -93 -47 -93v-23l35 23v-11l-47 -175q12 -23 12 -35h-12q12 -23 12 -35l-12 -23l12 -24q-31 -174 -58 -174q-105 78 -105 128q-35 0 -35 -35h-23q0 12 11 35q0 15 -23 128q35 94 35 256
q-12 23 -12 35l24 12q0 11 -12 11q12 117 23 117l-11 23q11 41 11 47l-11 23q11 20 11 47h-11q9 46 23 46l-12 24q0 35 24 93l-12 23q23 60 23 93h-11q11 0 23 187q-12 0 -12 11q23 0 23 24l-11 23q11 22 11 35q-11 0 -11 11h11q-34 90 -93 152v12q28 0 117 46h23
q198 0 198 -93q8 -175 58 -175l-11 -23q81 -172 81 -198q-11 -23 -11 -35q31 0 69 -151h12v34l-12 59q24 0 24 23h-24v12q0 11 12 11l-12 24l12 23l-12 58q24 87 24 105h-12q12 70 23 70l-11 23v12q0 11 11 11l-11 24v105q0 29 46 35zM78 339v-12q17 0 35 35h-12
q-23 -4 -23 -23zM463 -92q23 -4 23 -23v-12q-23 0 -23 23v12zM32 -162q16 0 34 -35h-11q-23 0 -23 23v12z" />
    <glyph glyph-name="o" unicode="o" horiz-adv-x="659" 
d="M245 1448q138 -11 138 -21q53 10 53 21q47 -15 85 -43q19 11 43 11q0 -29 85 -64q0 -10 11 -10q-14 -119 -21 -149q10 -21 10 -32q-10 0 -10 -11h10l-10 -21q0 -11 10 -11l-10 -21q0 -11 10 -11l-10 -21v-64l10 -21h-10l10 -22v-10h-21q21 -68 21 -75q-21 -39 -21 -85
l11 -96q0 -30 -54 -170v-11q0 -74 32 -74v-128l-10 -21q17 0 32 -21q-49 -181 -128 -181q-95 -87 -96 -96q-138 11 -138 21q-54 -10 -54 -21q-46 15 -85 43q-18 -11 -42 -11q0 29 -85 64q0 10 -11 10q13 130 21 149q-10 21 -10 32q10 0 10 11h-10l10 21q0 11 -10 11l10 21
q0 11 -10 11l10 21v64l-10 21h10l-10 22v10h21q-21 68 -21 75q21 39 21 85l-11 96q0 30 53 170v11q0 74 -31 74v128l10 21q-17 0 -32 21q49 181 128 181q96 87 96 96zM309 1237v-24l-11 -83h11l-43 -201q11 -23 11 -36h-11q0 -12 11 -12l-11 -83l11 -59h-11l11 -24
q0 -95 -32 -320v-23q0 -12 10 -12l-10 -24q0 -12 10 -12l-21 -59q0 -12 11 -12l-11 -59v-24l21 12h11q21 -4 21 -24q35 24 64 24v24l11 83h-11q11 75 43 189l-11 24v12q0 12 11 12q0 12 -11 12l11 83l-11 59h11l-11 24q0 95 32 320v23q0 12 -11 12l11 24q0 12 -11 12l22 59
q0 12 -11 12l11 59v24l-22 -12h-10q-22 0 -22 24q-34 -24 -63 -24z" />
    <glyph glyph-name="p" unicode="p" horiz-adv-x="614" 
d="M129 1436l43 -11q23 0 118 11l43 -11l42 11l129 -11l53 11q86 -131 86 -161v-21q0 -24 -11 -43q11 -21 11 -32h-11l11 -21q0 -11 -11 -11l11 -21q0 -11 -11 -11l11 -22l-11 -21h11q-11 -21 -11 -32q0 -16 22 -96q-22 -36 -22 -65v-10l11 -22q-11 0 -11 -10h11
q-15 -54 -75 -54l11 -21q-22 0 -22 -32l-21 10h-11l11 -53q0 -22 -21 -22q0 11 -11 11q-11 -54 -54 -54q0 11 -10 11q0 -25 -54 -53q-21 0 -21 21q49 43 75 43v11q-61 0 -129 -75q43 -16 43 -32q-118 -67 -118 -129l11 -43l-54 -225l-10 -21q21 -35 21 -53q-11 -21 -11 -33
q11 0 11 -10q-16 0 -32 -43q11 0 11 -11h-11q-21 11 -32 11q-68 -75 -129 -75q0 11 -10 32h10q-21 35 -21 64v22l11 64q0 11 -11 11l11 75v75q0 10 10 10l-10 22q0 10 10 10l-10 22v43l10 21h-10l10 21v11l-10 22h21l-11 21h22q0 21 -32 21v11q0 11 43 32q0 32 -33 32l11 54
h-11q11 32 22 32q0 11 -11 11q0 13 32 149h-10q21 150 32 150l-11 22q11 20 11 32h-11q15 60 32 85h-21v11l10 22h-10l10 21q0 11 -10 11l10 21q0 11 -10 11l10 21l-10 54h10q-10 20 -10 32q0 11 10 32l-10 64v22q53 0 53 21zM311 1265l-21 -32v-32q0 -11 10 -11l-21 -75
q11 -19 11 -43q-22 -35 -22 -53q11 0 11 -11h-11q0 -11 11 -11q-7 -75 -21 -75l10 -21q0 -11 -10 -11q0 -20 21 -86l-21 -74h10q139 129 139 160h-10q10 75 21 75l-11 21v22q0 11 11 11l-11 21q0 62 22 214l-43 11l-64 -11q0 11 -11 11zM707 826h32q0 -22 -21 -22h-11v22z
" />
    <glyph glyph-name="q" unicode="q" horiz-adv-x="659" 
d="M309 1237v-24l-11 -83h11l-43 -201q11 -23 11 -36h-11q0 -12 11 -12l-11 -83l11 -59h-11l11 -24q0 -95 -32 -320v-23q0 -12 10 -12l-10 -24q0 -12 10 -12l-21 -59q0 -12 11 -12l-11 -59v-24l21 12h11q21 -4 21 -24q35 24 64 24v24l11 83h-11q11 75 43 189l-11 24v12
q0 12 11 12q0 12 -11 12l11 83l-11 59h11l-11 24q0 95 32 320v23q0 12 -11 12l11 24q0 12 -11 12l22 59q0 12 -11 12l11 59v24l-22 -12h-10q-22 0 -22 24q-34 -24 -63 -24zM254 6q-31 -8 -31 -16q-46 15 -85 43q-18 -11 -42 -11q0 29 -85 64q0 10 -11 10q13 130 21 149
q-10 21 -10 32q10 0 10 11h-10l10 21q0 11 -10 11l10 21q0 11 -10 11l10 21v64l-10 21h10l-10 22v10h21q-21 68 -21 75q21 39 21 85l-11 96q0 30 53 170v11q0 74 -31 74v128l10 21q-17 0 -32 21q49 181 128 181q96 87 96 96q138 -11 138 -21q53 10 53 21q47 -15 85 -43
q19 11 43 11q0 -29 85 -64q0 -10 11 -10q-14 -119 -21 -149q10 -21 10 -32q-10 0 -10 -11h10l-10 -21q0 -11 10 -11l-10 -21q0 -11 10 -11l-10 -21v-64l10 -21h-10l10 -22v-10h-21q21 -68 21 -75q-21 -39 -21 -85l11 -96q0 -30 -54 -170v-11q0 -74 32 -74v-128l-10 -21
q17 0 32 -21q-49 -181 -128 -181q-29 -26 -49 -46q32 -134 93 -328q-32 0 -32 -18l21 8h11q0 -26 21 -71q-11 0 -11 -9h21v-9q0 -18 -21 -18q-53 54 -83 54l10 18v9l-21 -9h-21q-67 107 -125 125q0 10 10 10l-47 98q-8 35 -21 35l11 18q0 47 -24 53z" />
    <glyph glyph-name="r" unicode="r" horiz-adv-x="659" 
d="M137 1441l52 -10l105 10l42 -10l41 10l126 -10l52 10l94 -157q-10 -63 -21 -63l11 -21q0 -10 -11 -10l11 -21q0 -10 -11 -10l11 -21q0 -11 -11 -11l11 -21l-11 -21h11q-11 -20 -11 -31q0 -16 21 -94q-21 -34 -21 -63v-10l11 -21q-11 0 -11 -11h11q-15 -52 -73 -52l10 -21
q-21 0 -21 -31l-21 10h-10l10 -52q0 -21 -31 -21q18 -23 73 -240h-10l21 -95h-11q31 -76 42 -156q-11 -21 -11 -32q32 -165 100 -417q-32 0 -32 -21l21 10h11q0 -31 21 -83q-11 0 -11 -11h21v-10q0 -21 -21 -21q-53 63 -83 63l10 21v10l-21 -10h-21q-67 125 -125 146
q0 11 10 11l-47 114q-8 41 -21 41l11 21q0 63 -32 63q11 37 11 42l-42 52q0 11 10 11l-10 21v10l10 21h-10l10 21q0 10 -10 10q10 21 10 32q0 18 -20 62h10q-17 63 -31 63l10 21q-10 18 -10 42q18 10 41 10v11q-41 0 -41 21q-67 0 -94 -84l10 -42q0 -8 -42 -188
q0 -39 -21 -63q21 -34 21 -52q-10 -20 -10 -31q10 0 10 -11q-15 0 -31 -52q-20 10 -32 10q-66 -73 -125 -73q0 11 -11 31h11q-21 35 -21 63v21l10 63q0 10 -10 10l10 74v73q0 10 11 10l-11 21q0 11 11 11l-11 20v42l11 21h-11l11 21v11l-11 21h21l-10 20h21q0 21 -32 21v11
q0 10 42 31q0 32 -31 32l10 52h-10q10 31 21 31q0 11 -11 11q0 13 32 146h-11q21 146 32 146l-11 21q11 21 11 32h-11q15 59 32 83h-21l10 21q0 11 -10 11l10 21q0 10 -10 10l10 21q0 10 -10 10l21 42q-21 0 -21 21q0 11 10 11q-10 20 -10 31t10 31l-10 63v21q52 0 52 21z
M315 1274q-14 -14 -32 -105l11 -21l-11 -21q11 -18 11 -42q-21 -34 -21 -52q10 0 10 -10h-10q0 -11 10 -11q-12 -93 -21 -115l21 -73l-21 -73h11q136 117 136 157h-11l21 83q-10 0 -10 11h10l-10 21q0 10 10 10l-10 21v42q2 52 21 52l-11 21v42l11 52q-37 11 -42 11l-63 -11
q0 11 -10 11zM702 845h31q0 -21 -21 -21zM74 573v-10q11 0 32 -11v21h-32zM498 -200q20 -10 31 -10v-11h-31v21z" />
    <glyph glyph-name="s" unicode="s" horiz-adv-x="634" 
d="M234 439q2 -45 11 -45l-11 -22q0 -10 11 -10q-18 -40 -32 -171l42 -10l64 10q0 -10 11 -10l21 32v74q0 24 11 43l-11 21q11 58 11 96v10q0 11 -11 11l11 21q0 11 -11 11l21 53q0 11 -10 11l10 53v21l-21 -10h-11q-21 0 -21 21l-42 -21q0 10 -11 10v-10q-47 15 -85 42
q-19 -11 -43 -11q0 30 -85 64l-10 22l10 63l-21 -10h-11v10l43 75v32q0 74 -32 74v128l11 21q-18 0 -32 21q52 192 149 192l74 85q138 -11 138 -21q53 10 53 21q208 -85 224 -106l-11 -54v-143q-27 0 -196 -82l-33 25q16 98 16 115h-10q-19 -10 -43 -10l-10 21
q-75 -28 -75 -53l11 -21q-11 -19 -11 -43h11q-11 -53 -21 -53l10 -21q-19 -39 -32 -107q11 -20 11 -32h53q101 -24 139 -52q19 11 43 11q0 -29 85 -64q0 -10 10 -10q-3 -99 -11 -129q11 -21 11 -32q-11 0 -11 -11h11l-11 -21q0 -11 11 -11l-11 -21q0 -11 11 -11l-11 -21v-64
l11 -21h-11l11 -21v-11h-22q22 -68 22 -75q-27 -104 -107 -255q-80 0 -127 -42q-24 0 -43 10l-138 -21q0 21 -21 21l-75 -10q0 14 -85 138v42q0 24 11 43q-11 21 -11 32q11 0 11 11h-11l11 21q0 10 -11 10l11 22l-11 21q58 38 181 85q0 8 30 22z" />
    <glyph glyph-name="t" unicode="t" horiz-adv-x="634" 
d="M606 1464h11q0 -33 33 -33l-33 -145q-22 0 -22 -33h-54l-22 -10q0 21 -22 21q-55 0 -66 -117q0 -11 11 -11q-35 -240 -43 -262q10 -33 21 -33l-11 -22v-11l11 -22h-11q0 -11 11 -11q-8 -109 -21 -109q0 -11 10 -11q-39 -212 -54 -219l11 -21v-11q0 -11 -11 -11l11 -22
v-22q0 -25 -11 -44l11 -22q-11 -60 -11 -87h11l-11 -22l11 -22q-22 -3 -22 -22v-87l-55 -11v-11h44v-55q0 -22 -22 -22q0 11 -11 11q0 -11 -11 -11q0 25 -131 164q0 11 -44 66l55 394l-11 21l11 22q0 11 -11 11l11 55q0 12 -11 33q11 21 11 32h-11l11 22l-11 22
q33 93 33 120q-11 0 -11 11h11l-11 22q11 131 22 142l-11 22q22 86 22 107l-55 11h-44q-11 0 -11 -11q-36 4 -76 65h-11l11 22q-22 61 -22 90v22q3 22 22 22h98q11 0 11 -11q36 22 66 22h44q10 0 10 -11q44 22 77 22l22 -11q11 0 33 11q74 -11 120 -11h11l54 11
q0 -11 11 -11q4 22 22 22zM278 415v-11q54 28 55 43h-11q-44 -16 -44 -32zM202 393v-22h33v11q-12 0 -33 11zM311 -132h11q0 -12 11 -33h-22v33z" />
    <glyph glyph-name="u" unicode="u" horiz-adv-x="659" 
d="M478 1437l187 150l31 -21q-2 -13 -4 -21q10 -21 10 -32q-10 0 -10 -11h10l-10 -21q0 -11 10 -11l-10 -21q0 -11 10 -11l-10 -21l-23 -216l10 -21h-10l10 -22v-10h-21q21 -68 21 -75q-21 -39 -21 -85l11 -96q0 -30 -84 -370v-11q0 -74 32 -74v-128l-10 -21q17 0 32 -21
q-49 -181 -128 -181q-95 -87 -96 -96q-138 11 -138 21q-54 -10 -54 -21q-46 15 -85 43q-18 -11 -42 -11q0 29 -85 64q0 10 -11 10q13 130 38 318q-10 21 -10 32q10 0 10 11h-10l10 21q0 11 -10 11l10 21q0 11 -10 11l10 21v64l-10 21h10l-10 22v10h21q-21 68 -21 75
q21 39 21 85l2 127q0 30 53 170v11q0 74 -31 74v128l10 21q-17 0 -32 21q3 13 7 25l51 27l197 9l31 -34l-9 -68h11l-43 -201q11 -23 11 -36h-11q0 -12 11 -12l-11 -83l11 -59h-11l11 -24q-30 -295 -62 -520v-23q0 -12 10 -12l-10 -24q0 -12 10 -12l-21 -59q0 -12 11 -12
l-11 -59v-24l21 12h11q21 -4 21 -24q35 24 64 24v24l11 83h-11q11 75 43 189l-11 24v12q0 12 11 12q0 12 -11 12l11 83l19 259h11l-11 24q0 95 32 320v23q0 12 -11 12l11 24q0 12 -11 12l22 59q0 12 -11 12l10 53z" />
    <glyph glyph-name="v" unicode="v" horiz-adv-x="607" 
d="M431 1242l-10 21l92 358l21 10h40q82 -186 82 -194h-10l10 -21q-10 -18 -10 -41h10l21 10l10 -20q-14 0 -31 -61q-41 0 -41 -82q-87 -459 -87 -485h10q-23 -63 -62 -103q0 -10 11 -10q-24 -164 -51 -164q0 -51 20 -51q-31 -52 -31 -102q0 -10 11 -10q-52 -106 -52 -133
v-113q0 -61 -92 -61h-10q-235 0 -235 51v184q0 23 -10 41q10 18 10 41q-10 20 -10 31h10l-10 20q0 10 10 10l-10 21v133q0 10 -11 10l21 51q-10 18 -10 41q0 10 10 10l-10 21v112q0 10 -11 10l11 21l-11 20h11l-11 21q0 10 11 10q-8 13 -21 143q10 20 10 31q-20 33 -20 61
h10l-10 21v20h20q-8 41 -20 41l10 21q0 10 -10 10l10 20v31q0 10 -10 10q0 15 31 123h10q0 -11 153 -143q14 -137 31 -184h-10l20 -62v-215l21 -30q-20 -10 -31 -10v-62q0 -10 10 -10q0 -10 -10 -10l10 -51v-62q0 -10 -10 -10l10 -20v-21l-10 -51h41l51 153q-20 34 -20 52
q23 0 30 51q-10 0 -10 10q20 3 20 20q0 11 -10 11q10 12 10 61q78 376 88 444zM108 1360l-20 11q0 -11 -10 -11l-11 21h41v-21zM78 1391h-52v10h52v-10zM534 1641h-41v10h41v-10zM523 1662v20h41v-10z" />
    <glyph glyph-name="w" unicode="w" horiz-adv-x="1008" 
d="M108 1360l-20 11q0 -11 -10 -11l-11 21h41v-21zM426 1210q3 21 5 32l-10 20v1q1 17 31 122h10q0 -11 153 -143v-4q14 -134 31 -180h-10l20 -62v-215l21 -30q-20 -10 -31 -10v-62q0 -10 10 -10q0 -10 -10 -10l10 -51v-62q0 -10 -10 -10l10 -20v-21l-10 -51h41l51 153
q-20 34 -20 52q23 0 30 51q-10 0 -10 10q20 3 20 20q0 11 -10 11q10 12 10 61q78 376 88 444l-10 21l92 358l21 10h40q82 -186 82 -194h-10l10 -21q-10 -18 -10 -41h10l21 10l10 -20q-14 0 -31 -61q-41 0 -41 -82q-87 -459 -87 -485h10q-23 -63 -62 -103q0 -10 11 -10
q-24 -164 -51 -164q0 -51 20 -51q-31 -52 -31 -102q0 -10 11 -10q-52 -106 -52 -133v-113q0 -61 -92 -61h-10q-235 0 -235 51v184q0 23 -10 41q10 18 10 41q-10 20 -10 31h10l-10 20q0 10 10 10l-10 21v9q-27 -48 -27 -95q0 -10 11 -10q-52 -106 -52 -133v-113
q0 -61 -92 -61h-10q-235 0 -235 51v184q0 23 -10 41q10 18 10 41q-10 20 -10 31h10l-10 20q0 10 10 10l-10 21v133q0 10 -11 10l21 51q-10 18 -10 41q0 10 10 10l-10 21v112q0 10 -11 10l11 21l-11 20h11l-11 21q0 10 11 10q-8 13 -21 143q10 20 10 31q-20 33 -20 61h10
l-10 21v20h20q-8 41 -20 41l10 21q0 10 -10 10l10 20v31q0 10 -10 10q0 15 31 123h10q0 -11 153 -143q14 -137 31 -184h-10l20 -62v-215l21 -30q-20 -10 -31 -10v-62q0 -10 10 -10q0 -10 -10 -10l10 -51v-62q0 -10 -10 -10l10 -20v-21l-10 -51h41l51 153q-20 34 -20 52
q23 0 30 51q-10 0 -10 10q20 3 20 20q0 11 -10 11q10 12 10 61q62 298 81 403h-3zM452 475q-8 -15 -16 -15q0 -46 16 -50v65zM78 1391h-52v10h52v-10z" />
    <glyph glyph-name="x" unicode="x" horiz-adv-x="664" 
d="M139 1437h106q0 -97 43 -97l-11 -21l76 -172h10q0 49 120 269q0 21 65 21q11 0 32 -11l64 11q32 -11 32 -21l22 10h32v-10q-28 0 -54 -76h11q-59 -158 -107 -204q-4 -72 -108 -269q10 0 10 -10q-10 0 -10 -11q10 0 10 -11h-10q21 -35 21 -54q-11 0 -11 -10q11 0 11 -11
h-11l11 -22l-11 -21q68 -108 86 -108l-10 -21h10l-10 -22v-21q42 0 64 -140h-11l11 -21q0 -11 -11 -11q52 -151 86 -183v-32h-11l11 -21v-22l-21 11q-79 -140 -86 -140q-26 0 -32 32l10 11q-79 0 -106 183q-17 0 -54 97q11 0 11 10q-37 4 -76 151q11 0 11 11h-21v10h21
q0 22 -43 22v11l22 32v10h-11q-158 -426 -215 -451q11 0 11 -11q-19 0 -65 -129l-290 -215q0 11 -11 11q0 -11 -11 -11v11l11 22q-11 0 -11 10q11 0 43 43q-10 21 -10 33q17 0 43 75h-11q162 296 215 505q183 338 183 398v10q0 59 -43 129q10 0 10 11q-25 0 -32 75
q11 0 11 11q-31 2 -97 183q-19 0 -54 107q33 54 140 54zM-269 -250h10v-22h-32q4 22 22 22zM-302 -326v-10q0 -22 -21 -22v11q3 21 21 21z" />
    <glyph glyph-name="y" unicode="y" horiz-adv-x="664" 
d="M308 415v-11q54 28 55 43h-11q-44 -16 -44 -32zM232 393v-22h33v11q-12 0 -33 11zM206 839q-2 10 -2 18v10q0 59 -43 129q10 0 10 11q-25 0 -32 75q11 0 11 11q-31 2 -97 183q-19 0 -54 107q33 54 140 54h106q0 -97 43 -97l-11 -21l76 -272h10q0 49 120 369q0 21 65 21
q11 0 32 -11l64 11q32 -11 32 -21l22 10h32v-10q-28 0 -54 -76h11q-59 -158 -107 -204q-3 -53 -135 -341l5 -9h-9l-2 -4q2 -7 11 -7q-8 -109 -21 -109q0 -11 10 -11q-39 -212 -54 -219l11 -21v-11q0 -11 -11 -11l11 -22v-22q0 -25 -11 -44l11 -22q-17 -246 -17 -273h11
l-11 -22l11 -22q-22 -3 -22 -22v-87l-55 -11v-11h44v-55q0 -22 -22 -22q0 11 -11 11q0 -11 -11 -11q0 25 -125 350q0 11 -44 66l55 394l-11 21l11 22q0 11 -11 11l11 55q0 12 -11 33q11 21 11 32h-11l11 22l-11 22q11 30 18 53zM335 -318h11q0 -12 11 -33h-22v33z" />
    <glyph glyph-name="z" unicode="z" horiz-adv-x="524" 
d="M511 1452q12 0 34 -11l66 11q34 -11 35 -22l22 11h33l1 -11q-29 0 -50 -78h11q-48 -163 -94 -211q4 -57 -109 -311q3 -40 -130 -322l-80 -267q6 0 35 -22h23q80 0 97 33l23 -11l44 11q45 -11 78 -11l1 -11q2 -25 -27 -78q-30 23 -35 23q-53 -92 -145 -134l-23 11
q-65 -22 -64 -33l-23 11q-165 -37 -185 -55l2 -22h-11l-4 44q11 0 11 11h-12q0 -12 -104 -89q-1 11 -12 11q1 -11 -10 -11l-1 11l10 23q-12 0 -12 11q26 33 64 33q-2 22 -35 22l-1 11l37 89h-11q137 279 198 589q92 132 168 411q41 49 37 100q-11 0 -12 11q11 0 10 11
l-23 11l-54 -22q-45 11 -78 11l-22 -11q-129 93 -134 155q13 45 30 45h22q37 0 56 -11l66 11q33 0 34 -11l55 11h89l2 -22q56 44 107 44zM125 430l1 -22q23 0 24 -22q22 0 21 22zM185 363l1 -11h45l-2 23q-19 -12 -44 -12zM293 -25h12q1 -12 13 -34h-22zM-101 -92h11l2 -22
h-34q2 22 21 22zM-128 -170v-11q2 -22 -20 -22l-1 11q2 22 21 22z" />
    <glyph glyph-name="braceleft" unicode="{" horiz-adv-x="467" 
d="M396 -72q-13 -8 -23 -17q-24 0 -43 10l-139 -21q0 21 -21 21l-75 -10q0 14 -85 138v43q0 24 11 43q-11 21 -11 32q11 0 11 11h-11l11 21q0 11 -11 11l11 21q0 11 -11 11l11 21v64l-11 21h11l-11 22v10h21q-21 68 -21 75q21 39 31 85l-10 197q0 30 21 484l11 21
q-18 0 -32 21q53 193 149 193l75 85q129 -11 129 -21q53 10 53 21q46 -19 83 -35l-100 -188q-12 -3 -26 -3l-11 21q-95 -58 -95 -83l11 -22q-11 -18 -11 -42h11q-11 -54 -21 -54l10 -21q-19 -39 -32 -107q11 -20 11 -32h-11q0 -110 11 -110l-11 -75l11 -53h-11l11 -22
q0 -186 -22 -388v-21q0 -11 11 -11l-11 -21q0 -11 11 -11q-19 -39 -33 -171l43 -11l64 11q0 -11 11 -11l1 1z" />
    <glyph glyph-name="bar" unicode="|" 
d="M286 1464h11q0 -33 33 -33q-18 -197 -29 -284q0 -11 11 -11q-35 -240 -43 -262q10 -33 21 -33l-11 -22v-11l11 -22h-11q0 -11 11 -11q-8 -109 -21 -109q0 -11 10 -11q-39 -212 -54 -219l11 -21v-11q0 -11 -11 -11l11 -22v-22q0 -25 -11 -44l11 -22q-11 -60 -11 -87h11
l-11 -22l11 -22q-22 -3 -22 -22v-87l-55 -11v-11h44v-55q0 -22 -22 -22q0 11 -11 11q0 -11 -11 -11q0 25 -131 164q0 11 -44 66l55 394l-11 21l11 22q0 11 -11 11l11 55q0 12 -11 33q11 21 11 32h-11l11 22l-11 22q33 93 33 120q-11 0 -11 11h11l-11 22q11 131 22 142
l-11 22q22 56 22 77l-8 239q3 22 22 22h98q11 0 11 -11q36 22 47 23q0 -11 11 -11q4 22 22 22zM148 415v-11q54 28 55 43h-11q-44 -16 -44 -32zM72 393v-22h33v11q-12 0 -33 11zM181 -132h11q0 -12 11 -33h-22v33z" />
    <glyph glyph-name="braceright" unicode="}" horiz-adv-x="467" 
d="M24 1513q13 8 23 17q24 0 43 -10l139 21q0 -21 21 -21l75 10q0 -14 85 -138v-43q0 -24 -11 -43q11 -21 11 -32q-11 0 -11 -11h11l-11 -21q0 -11 11 -11l-11 -21q0 -11 11 -11l-11 -21v-64l11 -21h-11l11 -22v-10h-21q21 -68 21 -75q-21 -39 -31 -85l10 -197
q0 -30 -21 -484l-11 -21q18 0 32 -21q-53 -193 -149 -193l-75 -85q-129 11 -129 21q-53 -10 -53 -21q-46 19 -83 35l100 188q12 3 26 3l11 -21q95 58 95 83l-11 22q11 18 11 42h-11q11 54 21 54l-10 21q19 39 32 107q-11 20 -11 32h11q0 110 -11 110l11 75l-11 53h11l-11 22
q0 186 22 388v21q0 11 -11 11l11 21q0 11 -11 11q19 39 33 171l-43 11l-64 -11q0 11 -11 11l-1 -1z" />
    <glyph glyph-name="asciitilde" unicode="~" horiz-adv-x="512" 
d="M544 740l-109 -104h-6q-31 2 -42 -11l-32 9h-181l-18 2l-30 9q-16 -8 -132 -8q10 21 -43 25l3 7q5 12 42 12q3 7 -15 8q5 7 52 28q-18 1 -15 8l30 63q5 12 42 12l337 -11q75 -35 93 -36q12 -7 24 -13z" />
    </font>
</defs>
</svg>
